/* XPM */
static char *_f97b49d6a0341d9e0c74d9247565e15[] = {
/* columns rows colors chars-per-pixel */
"16 16 87 1 ",
"  c None",
". c #30CD89",
"X c #32CD8A",
"o c #34CE8B",
"O c #36CF8D",
"+ c #37CF8D",
"@ c #37CE8E",
"# c #38CF8E",
"$ c #39CF8E",
"% c #3ACF8F",
"& c #3BD08F",
"* c #3BD090",
"= c #3CD090",
"- c #3DD090",
"; c #3DD091",
": c #3ED091",
"> c #3ED192",
", c #3FD192",
"< c #40D192",
"1 c #41D093",
"2 c #40D193",
"3 c #41D193",
"4 c #42D193",
"5 c #41D293",
"6 c #41D194",
"7 c #42D194",
"8 c #43D194",
"9 c #43D294",
"0 c #46D296",
"q c #47D297",
"w c #48D397",
"e c #48D398",
"r c #49D398",
"t c #4ED49B",
"y c #50D59C",
"u c #51D59C",
"i c #51D59D",
"p c #53D59D",
"a c #53D69D",
"s c #55D69F",
"d c #59D7A1",
"f c #5AD7A1",
"g c #5BD8A1",
"h c #5DD8A3",
"j c #5ED8A4",
"k c #5FD8A4",
"l c #61D9A5",
"z c #62D9A5",
"x c #64D9A7",
"c c #67DAA8",
"v c #6DDCAC",
"b c #72DDAF",
"n c #75DDB1",
"m c #76DEB1",
"M c #7EDFB6",
"N c #82E1B8",
"B c #8CE3BE",
"V c #92E5C2",
"C c #99E6C5",
"Z c #A1E9CA",
"A c #A2E9CA",
"S c #A5E9CC",
"D c #A9EACF",
"F c #B1ECD3",
"G c #B2ECD4",
"H c #B3ECD4",
"J c #B5EDD4",
"K c #B7EED6",
"L c #BFF0DB",
"P c #C1F0DC",
"I c #C2F0DC",
"U c #C3F0DD",
"Y c #CAF2E1",
"T c #CBF2E2",
"R c #CCF3E2",
"E c #CDF3E2",
"W c #D4F5E7",
"Q c #DDF7EC",
"! c #DEF7ED",
"~ c #E7F9F1",
"^ c #EEFBF5",
"/ c #EFFBF6",
"( c #F0FCF7",
") c #F7FDFA",
"_ c #FAFEFC",
"` c #FBFEFD",
"' c white",
/* pixels */
"     222828<228 ",
"   2288282228<22",
"  22228%X<828282",
" w2282#hSs&+2282",
" 222%X#W'D%z2<22",
"228&bSIYJhI'N+82",
"2228~'H0sC)(m+<2",
"822&BHpQ'Upu%2<8",
"226:afH)!pKRt:22",
"22#c)'ApwV''k#22",
"02#z(RsY~UMv2282",
" 2::a:v'(w.#282 ",
" 228&:2mz&2822  ",
"  22222#%8222w  ",
"   0022822222   ",
"                "
};
