/* XPM */
static char *_d1a80e8d6804dd5ad12531f87d063ed[] = {
/* columns rows colors chars-per-pixel */
"128 128 68 1 ",
"  c None",
". c #2FCC87",
"X c #2ECD8A",
"o c #35CE8C",
"O c #39CF8E",
"+ c #2ED08A",
"@ c #36D08E",
"# c #3BD08F",
"$ c #37CE90",
"% c #3CCF91",
"& c #3ED192",
"* c #40CF8E",
"= c #42D08F",
"- c #42CF93",
"; c #41D193",
": c #49D297",
"> c #47D398",
", c #4CD39A",
"< c #53D59D",
"1 c #59D59D",
"2 c #55D6A1",
"3 c #5AD7A2",
"4 c #5CD8A3",
"5 c #60D7A7",
"6 c #62D9A6",
"7 c #65DAA9",
"8 c #6BDBAB",
"9 c #71DCAE",
"0 c #74DEB1",
"q c #7BDFB4",
"w c #7DE0B6",
"e c #80DFB7",
"r c #82E0B7",
"t c #83E1B9",
"y c #8BE3BD",
"u c #91E4BF",
"i c #8DE3C0",
"p c #93E5C2",
"a c #9BE6C5",
"s c #9DE8C7",
"d c #9CE7C8",
"f c #9DE8C9",
"g c #A2E7C8",
"h c #A4E9CB",
"j c #AAEBCE",
"k c #ACEBD1",
"l c #B3EDD4",
"z c #B9EED7",
"x c #B6EDD8",
"c c #BCEFD9",
"v c #BEF0DA",
"b c #C2EFDC",
"n c #C4F1DE",
"m c #C9F2DE",
"M c #C7F2E1",
"N c #CCF3E2",
"B c #D3F4E5",
"V c #D9F6E7",
"C c #D6F5E8",
"Z c #DCF6EB",
"A c #DEF8ED",
"S c #E2F7ED",
"D c #E3F9EE",
"F c #E5F9F1",
"G c #ECFAF4",
"H c #F1FBF6",
"J c #F5FCF9",
"K c #FEFFFF",
/* pixels */
"                                                                                                                                ",
"                                                                                                                                ",
"                                                                                                                                ",
"                                                                                                                                ",
"                                                                                                                                ",
"                                                                                                                                ",
"                                      &&;;;&>>&;;;;;;;;;;;;;;;;;;;;;;;;;;;;;;;;;;;;;;;;;;;;;;;;;;;;;;;;;;;;;;;;;;;;;;;;;;       ",
"                                      ;;;;;;&&;;;;;;;;;;;;;;;;;;;;;;;;;;;;;;;;;;;;;;;;;;;;;;;;;;;;;;;;;;;;;;;;;;;;;;;;;;;       ",
"                                  ;;;;;;->;;;;;;;;;;;;;;;;;;;;;;;;;;;;;;;;;;;;;;;;;;;;;;;;;;;;;;;;;;;;;;;;;;;;;;;;;;;;;;;       ",
"                              ;;;;;;;;&;;;;*;;;;;;;;;;&;;;;;;;;;;;;;;;;;;;;;;;;;;;=;;;;;;;;;;;;;;;;;;;&;;;;;;;;;;;;;;;;;;       ",
"                           ;;=&;;;;;;;;;;;;;;;;;;;;;;;;;;;;;;;;;;;;;;;;;;;;;;;;;;;;;;;;;;;;;;;;;;;;;;;;;;;;;;;&=;;;;;;;;;       ",
"                           ;;;;;;;;;;;;;;;;;;;;;;;;;;;;;;;;;;;;;&=;;;;;;;;;;;;;;;;;;;;;;;;;;;;&;;;;;;;;;;;;;;;;;;;;;;;;;;       ",
"                          ;;;;;;;;;;;;;;;;;;;;;;;;;;;;;;;;;;;;=&;;;;;;;;;;;;;;;;;;;;;;;;;;;;;;;;;;;;;;;;;;;;;;;;;;;;;;;;;       ",
"                       &;;;;;;;;;;;;;;;;;;;;;;-&;;;;;;;;;;;;;;;;;;;;;;;;;;;;;;;;&;;;;;;;;;;;;;=;;;;;;;;;;;;;;;;;;;;;;;;;;       ",
"                      ;;;;;;;;;;;;;;;;;;;;;;;;;;;;;;;;;;;;;;;;;;;;;;;;;;;&;;;;;;;;;;;;;;;;;;;;;;;;;;;;;;;-;;;;;;;;;;;;;;;       ",
"                     ;;;;;;;;;;;&;;;;;;;-;;;;;;;;;;;;;;;;;;;;;;;;;;;;;;;;;;;;;;;;;;;;;;;;;;;;;;;;;;;;;;;;;;;;;;;&;;;;;;;;       ",
"                    ;;;;;;;;;;;;;;;;;;;;;;;;;;;;;;;;;;;;;;;;;;;;;;;;;;;;;;;;;;;;&;;;;;;=;;;;;;;;;;;;;;=;;;;;;;;;;;;;;;;;;       ",
"                   ;;;>&;;;;;;;;;;-;;;;;;=;;;;;;;;;;;;;;;;;;;;;;;;;;;;;;;;;;;;;;;;;;;;;;;;;;;;;;;;;;;;&;;;;;;;;;;;;;;;;;;       ",
"                  ;>;-;;;;;;;;;;;;;;;;;;;;;&;;;;;;;;;;;;;;;;;;;;;;;;;;;;;;;;;;;;;;;;;;;;;;;;;;;;;;;;;;;;&;;;;;;;;;;;;;;;;       ",
"                 ;;;;>;;;;;;;;;;;&;;;;;;;;;;;;;;;;;;;;;;;;;;;;;;;;;;;;;;;;;;;;;;;;;;;;;;;;;;;;;;;;;;;;;;;;;;;;;;;;;;&=;;;       ",
"                ;;;;;>&;-;;;;;;;;;;;;;;;;;;;;;;;;;;;;;;;;;;;;;;;;;;;;;;;;;;;;;;;;;;;;;;;;;;&;;;;;;;;;;;;;;;;;;;;;;;;;;;;;       ",
"               ;;;;;;&>;;;;;;;;;;;;;;;;;;;;;;;;;;;;;;;;;;;;;;;;;;;;;=&;;;;;;;;;;;;;;;;;;;;;;;;;;;;;;;;;;;;;;;;;;;;;;;;;;;       ",
"              ;;;;;;;;;&;;;;;;;;;;;;;;;;;;;;;;;;;;;;;;;;;;=&;;;>;;;;;;;&>&;;;;;;;;&;;;;;;;;;;;;;;;;;;;;;;;;;;;;;;;;;;;;;;       ",
"             o;;;;;;;;;;;;;;;;;;;;;;;;;;;;;;;;;;;;;;;;;;;;;;;-;;;-;;;;;;;;&;;;;;;;;;;;;;;;;;;;=;;;;;;;;;-;;;;;;;;;-;;;;;;       ",
"            3o;;;;;;;;;;;;;;;;;;;;;;;;;;;;;;;;;;;;;;;;;;>&>;;;;&;;;--;;;;&;;;>&;;;;;;;;;;;;;;;;;;;;;;;;;;;;;;;;;;;;;;;;;;       ",
"            <o;;;;;;;;;;;;;;;;;;;;;;;;;;;;;;;;;;;;;;;;;;;;&;;;&&&&$&-O&*;;>;;;;;;;;;;;;;;;;;;;;;;;;;;;;;;;;;;;;;;;;;;;;;;       ",
"           7>&;;;;&;;;;;;;;;;;;;;;;&;;;;;;;;;;;;;;;&;;;;;;&;>;&&ooooooO#;;&&&;;;;;;;;;;;;;;;;;;;;;;;;;;&;;;;=;;;;;;;;;;;;       ",
"           o&;;;;;;;;;;;;;;;;;;;;;;=;;;;;;;;;;;;;;;;;;;;&&>;;$o,9yadsy9<$$;;=;;;;;;;;;;;;;;;;;;;;;;;;;;;;;;;&;;;;;;;;;;;;       ",
"          ;;;%;;;;;;;;;;;;;;;;;;;;;;;;;;;;;;;;;;;;;;;;;;;>;;#;6aNGKKKHBd8:O=;;;;;;;;;;;;;;;;;;;;;=;;;;;-;;;;;;;;;;;;;;;;;       ",
"          ;&;;;;;;;;;;;;;;;;;;;;;;;;;;-;;;;;;;;;;;;;-;;;;;&%:wBJKKKKKKKJAy>&;;;;;;;;;=;;;;;;;;;&;;;;;;;;-;;;;;;;;;;;;;;;;       ",
"         ;;;-=;;;;;;;;;;;;;;;;;;;;;;;;;;;;&;;;;;;=;;;;;;;;&&rZKKKKKKKKKKKSi,&%;;;;;;;;;;;;;;;;;;;;;;;;;;;;;;;;;;;;;;;;;;;       ",
"        ;;;&;;;;;;;;;;;;;;;;;&=;;;;;;;;;;;;;;;;;;&;;;;;;;#O9BKKKKKKKKKKKKKAw@&;;;;;;&;;;;;;;;;;;;&;;;;;;;;;;;;;;&;;;;;;;;       ",
"        ;>;;;;;;;;;;;;;;;;;;;;;;;;;;;;;;;;;;;;;;;;;;;;;;;#;zKKKKKKKKKKKKKKKl<&&;;;;;;&&>;>;;;&;;;;;;;;;;;;;;;;;;;;;;&;;;;       ",
"        ;;;=;;;;;;;;;;;;;;;;;;;;;=;;;;;;;;;;;;;;;;;;&>>;#;8ZKKKKKKKKKKKKKKKSy&&;;;;;=>;&;;;;;=;;;;;;;;;;;;;;;;;;-;;;;;;;;       ",
"        ;--;;-;;;;;;;;;;;;;;;;;;;;;;;;;;;;;;;;;&;;;;&;&&#,dGKKKKKKKKKKKKKKKKl-o;;;;;;;;;;;;;;;;;;&;;;;;;;;;;;;;;;;&;;;;;;       ",
"       ;;;;;;;;;;&=;;;;;;;;;;;;;;;;;;;;;;;=&;;;;;;-&;;>&o2nKKKKKKKKKKKKKKKKKn>o>;;;;;&;;;#;;;;;;;;>&;;;;;;;;;;;;;;;;;;;;;       ",
"       ;;;;;;;;;;;;;;;;;;;;;;;;;;;;;;;;;;;;;;;;;;;;-;;;#@wGKKKKKKKKKKKJKKKKKN:O;;;;;;;@###&O$&#;;&&>;;;;;;;;;;;;;;;;=;;;;       ",
"       ;;;;;;;;;;;;;;;;;;;;;;;;;;;;=;;;;;;;;;;;;;&;;-;;#2kJKKKKKKKKKKKKKKKKKm;o;&&;;==&&;,<,&#&-;>&;;;;;;;;;;;;;;;;;;;;;;       ",
"      ;;;=;&;;;;;;;;;;;;;;;;;&;;;;;;;;;;;;;;;;;;;;&;->%OyGKKKKKKKKKKKKKKKKKKc;o>&>;##;8hznmnla8*@&;&;;;;;;;;;&;;;;;;;;;;;       ",
"     ;;;;;;;;;;;;;;;;;;;;;;;;;;;;;;;;=;;;;;;=;;;;;;=;O$8NKKKKKKKKKKKKKKKKKKHg##;;;&#1uNJKKKKKHby2#&;;;;;;;;;;;;;;;;;;;;;;       ",
"     ;;;;;;;;;;;=;;;;;;;;;;;;;;;;;;;&&;;&&;;;;>;;;&###4nKKKKKKKKKKKKKKKKKKKB9&&;;&%4hJKKKKKKKKKGj3&&;;;;;;;;;;;;;;;;;;;;;       ",
"      ;;;;;;;;;;;;;;;;;;;;;;;;;;;;;;&;;&&;;##;&&&>&O&9NKKKKKKKKKKKKKKKKKKKKh>O;;&&<jJKKKKKKKKKKKGh2@;;;;;;;;;;;=;;;;;;;;;       ",
"      ;;;;;;&;;;;;;;;;;;;;;;;;;;;;;;;#oo@##@..X..#<qhCKKKKKKKKKKKKKKKKKKKKc7o;;;o&aGKKKKKKKKKKKKKGy&&;;;;;;;;;;;;;;;;;;;;       ",
"      ;&;&;;;;;;;;;;;;;;;;;;;;&;;;;OO>4qyupywwwwrujBJKKKKKKKKKKKKKKKKKKKJb8%&;;#&4CKKKKKKKKKKKKKKKx4;O;;;;;;;;;;;;;;;;;;;       ",
"      ;;;;;;;&;;;;;;;;;;;;;;;>;;;;&;<enGJKKJJJHJJKJKKKKKKKKKKJJKJJKKKKHGl4&%;;;o,uGKKKKKKKKKKKKKKKFi&O;;;;;;;;;;;;;;;;;;;       ",
"      ;;;;;;;;;;;;;;;;;;;;;;--;;;#-7zGKKKKKKKKKKKKKKKKKKKKJGNlkklcBSZng8,;&;>-;o1cJKKKKKKKKKKKKKKKKj&o;;;;;&;;;;;;;;;;;;;       ",
"      ;&;;;-;;;;;;;;;;;;;;;;;-;;&&3vKKKKKKKKKKKKKKKKKKKKJvpw97435799q81%o;;;;%;o8DKKKKKKKKKKKKKKKKKc&o;;;;;-;;;;;;;;;;;;;       ",
"      ;>;;&;;;;;;;;;;;;;;;;;;;--$2jJKKKKKKKKKKKKKKKKKKKAh4@XooO@OOooXoO;;;;;;&O:sKKKKKKKKKKKKKKKKKKc&O>-;;;;;;;;&;;;;;;;;       ",
"      ;;;;;-;;;;;;;;;;;;&&&>&&;&@yJKKKKKKKKKKKKKKKKKKKZq;&&&&-;&%&&*;>&&>&;;;%oqZKKKKKKKKKKKKKKKKKKl%O;;;;;;;;;;;;;;;;;;;       ",
"      ;;;;;;;%;;;;;;;;;;>>;&&&;&2lKKKKKKKKKKKKKKKKKKKZq-o$;;;;;;;;-;;;&;;&;;;#,lKKKKKKKKKKKKKKKKKKJh;O;;;;;;;;;;;;;;;;;;;       ",
"      ;;;;>;;;;;;;;;;;;;;;;;;;&&wBKKKKKKKKKKKKKKKKKKGs%$;>;;;;;;;;;;&;;;;;;&o>sGKKKKKKKKKKKKKKKKKKZr#O;;&;;;;;;;;;;;;;;;;       ",
"      ;;;%%&;;;;;;;;;;;;;;:;;;@&pFKKKKKKKKKKKKKKKKKKl1&%;;;;;;;&&&&&;;;;##@#<yGKKKKKKKKKKKKKKKKKKKk1;;;;;;;;;;;;;;;;&=;;;       ",
"      ;;;%->;;;;;;;;;;-;;>;;%-$&sHKKKKKKKKKKKKKKKKKGyo&;-;;&;-%%&&&-O&&&;&-5kGKKKKKKKKKKKKKKKKKKKFqo#;;;;;;;;;;;;;;;;;;;;       ",
"      ;;;;;%;;;;;;;;;;;;;;;;;>O;sGKKKKKKKKKKKKKKKKKl4o&;;;&&$o%<64,;%O#:6rkBJKKKKKKKKKKKKKKKKKKKGi>&;;;;;;;;;;;;;;;;;;;;;       ",
"      ;;;;;%;;;;;;;;;;;;;;;;;;@%yDKKKKKKKKKKKKKKKKGq&--;>#O&7ihzbbljjjjlbCJKKKKKKKKKKKKKKKKKKKKCp:o;;;;;;;;;;;;;;;;;;;;;;       ",
"      ;;;&>;;;-;;;;;;;;;;;;;;;#&9mKKKKKKKKKKKKKKKKB4o;;;OO<qxJKKKKKKKKKKKKKKKKKKKKJGFFDDGGJJGZxq-#;;;;;;-;;;;;;;;;-;;;;;;       ",
"      ;;;;;;;;;;;;;;;;;;--;&;&;;:jKKKKKKKKKKKKKKKFp,#=;>@,aSKKKKKKKKKKKKKKKKKKKKJZxaeywypjkkp8,&&&;>&;;;;;;;;;;;;;;;;;;;;       ",
"      ;;;;;;;;;;;;;;;;;;;;;;&&;&oqSKKKKKKKJKKKKKKN2&=;;@,yDKKKKKKKKKKKKKKKKKKKKNt74<:::,<<31,&##;;;&;;;;;;;;;;;;;;;;;;;;;       ",
"      ;;;;;>;;;;;&;;;;;;;;;;&>;=$,pGKKKKKKKJKKKKZr&O;;#@qZKKKKKKKKKKKKKKKKKKKHl8&Xo#$&OO&@oOO-;;;;;&;;;;;;;;=;;;;;;;;;;;;       ",
"      ;;;;&&;;;;;;;;;;;;;>;;&>&;;o,kGKKKKKKKKKKAy;#;;;O>kKKKKKKKKKKKKKKKJKKKHj,o&;;;;-;;&&;&;-;;;&;;;;;;;;;;&;;;;;;;;;;;;       ",
"      ;;;;&>&;;;;;;;;;;;;;;;;>&;-;O>yVJKKKKKJHn9;&;;&&&9NKKKKKKKKKKKKKKKKKKKl,O&-%;;;#;;;;;;&;;;>&;;;;;;;;;;;;;;;;;;;;;;;       ",
"      ;;;;%>;;;;;;;;;;;;;;;;;;;;&;;O:8ylNBBmhe6;#&&;>@&aHKKKKKKKKKKKKKKKKKKN8O%;>;;;;>;&;;&>>&;;&;;;;;;;-;;;;;;;;;;;;;;;;       ",
"      ;;;;>;;;;;;;;;;;;;;;;;;;;;&;>;#@&49qq8<oo#;;&;&@,nKKKKKKKKKKKKKKKKKKJp&&;;;;;&;&Ooo##&;;;;;;;;;;;;;;;;;;;;;;;;;;;;;       ",
"      ;;;;&;&;;;;;;;;-;;;;;;;&&>;;;;;&&$OO##O;;;&;;;&>wSKKKKKKKKKKKKKKKKKKn7o&;;;;&&O;:<,:>&O&;;;&&;;;;;;;;;;;;;&;;;;;;;;       ",
"      ;;;;&>;;;;;;;;;;;;;;;;;;;->&&;;;;&&&&&&>;;;;;;@3vKKKKKKKKKKKKKKKKKKHy;=;;&&;&&;8yfhat3&&;&;-&;;;;;;;;;;;;;;;;;;;;;;       ",
"      ;;;;&;;;;;;;;;;;;;;;;;;;;-;;;;;;;;;;;;;;;&;;;$;yGKKKKKKKKKKKKKKKKKKA6o;;;;&#;wxBSGGFANh8&O;-&>;;;;;;;;=;;;;;;;;;;;;       ",
"      ;;;;>%;;;;;;;;;;;;;;;;;;;;;;;;>&;;;;;;;-;;;;@&wCKKKKKKKKKKKKKKKKKKJj<o;;;=&<yCKKKKKKKKJnw,O&;&;;;;;;;;;;;;;&;;;;;;;       ",
"      ;;;;;;;;&;;;;;;;;;;;;;&>>-;=;;;&;;;;;;%&&&##>8nKKKKKKKKKKKKKKKKKKKB8-O;;;#,pGKKKKKKKKKKKVr&&;;;;;;;;;;;;;;;;;;;;;;;       ",
"      ;;;;>%;;;-;;;;;;;;;;;;;>;;>;#;&&%&%%&&%;&&o>iCKKKKKKKKKKKKKKKKKKKJg>$;;&;&wDKKKKKKKKKKKKKN8&;;;;;;;&;;;;;;;;;;;;;;;       ",
"      ;;;;>;;;;;;;;;;;;;;;;;;;;;&&@@O<1<<:;O&>18ylAKKKKKKKKKKKKKKKKKKKKl3$&;;&O7nKKKKKKKKKKKKKKJl,o;;;;;;;;;;;;;;;;;;-;;;       ",
"      ;;;;%;;;;;;;;;;;;;;;;;;;;;@&<wuglkggaupsknGKKKKKKKKKKKKKKKKKKKKZl7o;;;>-ouHKKKKKKKKKKKKKKKD7o#;;;;;;;;;;;;;;;;;;;;;       ",
"      ;;;&%>;;;;;&=;;;;;;;;=;;=#&7jDKJKKKKJKJKKKKKKKKKKKKJJGHGHJJHHGNy,$;;&;;O%jKKKKKKKKKKKKKKKKGy>&&;;;;;;;;;;;;;;;;;;;;       ",
"      ;;;;;;;;;;;;;;;;;;&;;;;;O%yBJKKKKKKKKKKKKKKKKKKKKGNksyyiahhhp9<>&&;;&;%#7NKKKKKKKKKKKKKKKKJh2@;;;;;;;;;;;;;;;;;;;;;       ",
"      ;;;;>%;;;;;;;;;;;;;;&;;$>qVKKKKKKKKKKKKKKKKKKKKFjr83<>>>,132:%o@&;;;;;o;gGKKKKKKKKKKKKKKKKJk4@;;;;;;;;;;;;;;;;;;;;;       ",
"      ;;&;>;;;;;;;;;;;;;;;&;&o7BKKKKKKKKKKKKKKKKKKKJCi:oo#&&&%&O&O&-;;;;&;;;&4BKKKKKKKKKKKKKKKKKJk4$&;;;;;;;;;;;;;;;;;;;;       ",
"      ;;;;&;;;;;;;;;;;;;;;;;-,pJKKKKKKKKKKKKKKKKKKKm8$$&&&&;;;&&;&;&;;-&&;=o,fGKKKKKKKKKKKKKKKKKJp,&;;;;;;;;;;;;;;;;;;;;;       ",
"      ;>;;-;&-;;;&;;;;;;&&>&o8NKKKKKKKKKKKKKKKKKKKZ0#@&;>&;;;;;;;;;&;&;;;;&OqFKKKKKKKKKKKKKKKKKKF0#=&;;;;;;;;;;;;;;;;;;;;       ",
"      ;&;;-;-*;;;;;;;;;;>;&&oyGKKKKKKKKKKKKKKKKKKGi&o=;;;;;;;>;=;&;;;>>;#o#qBKKKKKKKKKKKKKKKKKKKN3@&;;;;&;;;;;;;;;;;;;;;;       ",
"      &>;;&-;;;;;;;;;;;;&;;&.uKKKKKKKKKKKKKKKKKKKc,@&>&;;;;&#oooOO$&OOO.#1rCKKKKKKKKKKKKKKKKKKKDi>#>;;;;;;;;;;;;;;;;;;;;;       ",
"      &--;;&;;;;;;;;;;;;;;;#.aKKJKKKKKKKKKKKKKKKZy&#;;&;;&%;;>>>>>;>;>>:8lGKKKKKKKKKKKKKKKKKKKJl,&&&;;;;;;;;;;;;&;;;;;;;;       ",
"      ;;-;>&;;;;;;;;;;;;;;-OXpKKKKKKKKKKKKKKKKKKl,&&;;;;&#%7yhkjdpiyyajNZJKKKKKKKKKKKKKKKKKKKJl3&&&;;;;;;;;;;;;;;;;;;;;;;       ",
"      &;>;%;;;;;=;;;;;;;%;;&oyHKKKKKKKKKKKKKKKKJyo;;;;;o&7snZGJHGDZZAFJKKKKKKKKKKKKKKKKKKKKJNf3$&&;;;-;;;;;;;;;;;;;;;;;;;       ",
"      %>&;>;;;;;;;;;;;;;;;;;o9NKKKKKKKKKKKKKKKKb7o&&;&&;0vJKKKKKKKKKKKKKKKKKKKJDANbccbNCZCNh0&o&&&;;;;;;;;;;;;;;;;;;;;;;;       ",
"      ;&;;%;;%;;;;;;;;;;;;;;&,aJKKKKKKKKKKKKKKGe>&;>>$&qNKKKKKKKKKKKKKKKKKKKKGny6>>>>;>142,;;&;-;;;&;;;;;;;;;;;;;;;;;;;;;       ",
"      ;;;;&>;;;;;;;;;;;;;->-&o8ZKKKKKKKKKKKKKJz1o;;;-&2nKKKKKKKKKKKKKKKKKKKKBr3:&@@@o@oO&Oo#=;;;>;>;;;;;;;;;;;;;;;;;;;;;;       ",
"      >;-;;;;;;;;;;;;;;;;;--;o>ySKKKKKKKKKKKKN7%%;-;o,dJKKKKKKKKKKKKKKKKKKKn8#o#&;;;;;;&&;;;>;;&;-;;;;;;;;;;;;;;;;;;;;;;;       ",
"      ;;;;-;;;;;;;;;;;;;;;&-;;&;pAJKKKKKKKKHNq##>;;;o6ZKKKKKKKKKKJKKKKKKKKN8+#;;;;;;;;;;;;;&;;&;;;;;;;;;;;;;;;;;;;;;;;;;;       ",
"     &;;;&;--;;;;;&;;;;;;;&;;;&&&8cHJKKJJJSg4-O;;;;;oqJKKKKKKKKKKKKKKKKKKFw##;;;;;;;;;;;;;;;;;;;;;;;;;;;;;&;;;;;;;-;;&;;;       ",
"     @@&;;;;;&;;;;;;;;;;;;;;;;>;$;2qpjllji8<$@;&;;;&;pJKKKKKKKKKKKKKKKKKHj,o;>&;;;;;;;;;;;;;;;;;;;;;;;;;;;;;;;-&;;;;;;;;;;      ",
"      8&&;;&;;;;;;;;;;;;;;;;;;&;;%oo;3462$oo&;>&;;;#,gJKKKKKKKKKKKKKKKKKB5%%;;;;;;;;;;=&;;;;;;;;;;;;;;;;;;;;;;;-&;;&;;;;        ",
"       #$-;;;;;;;;;;;;;;;;;;=;;;;;;;&&&&$;-&;;&;=;;&,aHKKKKKKKKKKKKKKKKKj&O;;;;;;;;;;;;;;;;;;;;;;;;;;;;;;;;;;;;;;;;;;;;;        ",
"       #$>;>;-;;;;;;;;;;=;;;;&;;;;-;;%-;;&-;;;;&;;;;>yJKKKKKKKKKKKKKKKKBq%%-;;;;;;;;;-;;;;;;;;;;;;;;;;;;;;;;;;;;;&&>&;;;        ",
"       &&&>;;;;;;;;;;;;;;;;;;;;;;;&&;;;;;;;;;;;;;&;;o9GKKKKKKKKKKKKKKKKj,&;;;;;;;;;;;;;;;;;;;;;;;;;;-;;;;;;;;;;&;;;;-;;;        ",
"        &>&&;;;;;;;;;;;;&;;&;>;;;;;;;;;;;;;;;;;;;&&;o1mKKKKKKKKKKKKKKKGeo%;;&>;;;;;;;;;;;;;;;;;;;;;;;;;;;;;;;;;>;;;--;          ",
"        ;;>&;;;;;;;;;;;;;;;;;-;;&;;;;;;;;>;&;;;;-;--%-eSKKKKKKKKKKKKKJl4O;;;;;;;;;;;;;;;;;;;;;;;;;;;;&;;;;;;;;;&&&;;;;          ",
"        ;;;;;;;;;;;;;;;;;;;;&;;;;;&>;;;;;;;;>;&&>----O:kHKKKKKKKKKKKKB7%&;>%;;;;;;&;;;;;;;;;;;;;;;;;;;;;;;;;;;;&>>&;;;          ",
"        ;>&;&&;;;;;;;;;;;;;;;;;;;;;;&;;;;;;;;;;;;;;;>&O3jGKKKKKKKKKKNq&#&>;;;;;;;;;;;;;;;;;;;;;;;;;;;;;;;;;;;;&;;;>&;;          ",
"         >;;&&;;;;;;;;#;;;;;;;;>;%;-;;;;;;;>;;;;-;;;-;&o2aNFKKKKKJZlqO&;&&;;;&;;;;;;;;;;;;;;&;;;;;;;;;;;;;;;;;>;;;;&;           ",
"          ;;;;;;;;;;;;&;;;;;;;;;;;;;;;;;;;;;;;;;;;;;;;;;#&4anZFDCkw:o%;;;;;;;;;;;;;;;;;;;;;;;;;;;;;;;;;;;;;;=;;;;;>&;           ",
"          &;&;;>;;;;;;&=;;;;;;;;;;;;;;;;;;;;;;;;;;;;;;;;#&&,<3431<>##;;;;;;;;;;;;;;;;;;;;;;;;;;;;;;;;;;;;;;;;;;;;;&;;           ",
"           ;;;;;=;;;;;;;;;;;;;;;;;;;;;;&;;;;;;;;&;;;;;;;;;&#oooXX@#;;;;;;;;;;;;;;;;;;;=;;;;;;;;;;;;;;;;;;;;;;;;;;;;;            ",
"            ;;;;;;;;;;;;;;;;;;;;;;;;;;;;;;;;;;;;;;;;;;;;;&;;&;;;&;;;;;;;;;;;;;;;;;;;;;&;;;;;;;;;;;;;-;#;;;;;;;;;;&;             ",
"            ;;;;;;;;;;;;;=;;;;;;;;;;;;;;;;;;=;;;;;;;;;;;;;;;;&&;;;;;;;;;;;;;;;;;;;;;;;;;;;;;;;;;;;;;;;;;;;;;;;;&;;              ",
"            =;;;;;;;;;;;;;;;;;;;;;;;;;;;;;;;;;;;;;;;;;;;=->;;;&&;;;;;;;;;;;;;;;;;;;;;;;;;;;;;;;;;;;;;;;;;;;;;;&&;;              ",
"             ;;;;;>;;;;;;;;;;;;;;;;;;;;;;;;;;;;;;;;;;;;;=;;;&;;>>&;;;;;;;;;;-;;;;;;;;;;&;;;;;;;;;;;;;;;;;;;;;;;>;               ",
"              &>;;;;;;;;;;;;;;;;;;;;;;=;=;;;;;;;;;;;;;;;;;;;>&;;;;;;;;;;;;;;;;;&;;;;;;;;;;;;;;;;;;;;;;;;;;;;;;>&                ",
"               &;;;;;;;;;;;;;;;;;;;;;;;;;;;;;;;;;-;;;;;;;;;=;;;&;;;;;;;;;;;;;;;=;;;;;;;;;;;;;;;;;;;;;;;;;;;;;#&                 ",
"                ;;;;;=;;;;;;;;;;;;;;;;;;;;;;;;;;;;;;&;;;--;&&-;;;;;;;;;;;;;;;;;;;;;;;;;;;;;;;;;;;;;;;;;;;;;;;O                  ",
"                 ;;>;;;;;;;;;;;;&;;;;;;;;;;;;;;;;;;;;;;;-%;;;;;;;;#;;;;;;;;;;;;;;;;;;;;;;;;&&;;;;;;-;;;;&;;%>                   ",
"                  ;;;;;;;;&;;;;;;;;;;;;;;;&;;;;;;;;;;;;;;;;;;;;;;;;;;;;;;;;;;;&;;;;;;;;;&;;>;;;;;;*;;;;;;;-o                    ",
"                   ;;;;;=&;;;;;#;;;;;;;;;;;;;;;;;;;;;;;;;;;;;;;;;;;;;;;;;;;;;;;;;;;;;;;;;>;;;;;;;;;;;;;;;;;                     ",
"                    ;;;;;;;>;;;;;;;;;;;;;;;;&;;;;;;;;;;;;;;;;;;;;;;;;;;&;;;;;;;;;;;;;;=;;;;;;;;;;;;;;;;;;-                      ",
"                     ;;>&;;;;&&&;;&;;;;;;;;;;;;;;;;;;;;;;;;;;;;;;;;;;;;;;;&;;;;;;;;;;;;;;;;;;;;=;;;;%>;;;                       ",
"                      ;;&>>&>&>&&;;;;;;;;;;;;;;;;;;;=;;;;;;;;;;;;;;;;;=;;;;;;;;;;;;;;;;;;&-;;;;;;;&&-&>;                        ",
"                       ;&>;;>;&&&&;;;;;;;;;;;;;;;;;&;;;;;;;;;;;;;;;;;;;;;;;;;;;;;;;;;;;;;;;;;;;;>&;;&&;                         ",
"                          &;;;;;>;;;;;;;;;;;;;;;;;;;;;;;;;;;;;;;;;;;;;;;;;;;;;;;;;;;;;;;;&;;&;>&&;>&>                           ",
"                           ;=;;;;;;;;;;;;;;=;;;;;;;;;;;;;;;;;;;;;;;;;;;;;;;;;;;;;;;;;;;;;;;>;;&;>;;;                            ",
"                            &&;;##;;;;;;;;;;;;;;;;;;;;;;;;;;;;;;;;;;;;;;;;;;;;;;;;;;;;;;;;;;;;;>;&;                             ",
"                              ;;;;;;;;;;;;;;;;;;;;;;;;;;;;;;;;;;;;;;;;;;;;;;;;;;&;;;;;;;;;&;;;;;;                               ",
"                                  @#>;;;;;;;;;;;;;;;;;;;;;;;;;;;;;;;;;;;;;;;;;;;;;;;;;;;;;;;;                                   ",
"                                      &;;;;;;;;;;;;;;;;;;;;;;;;;;;;;;;;;;;;;;;o$;;>;;;;;;                                       ",
"                                      >;;;;;;;;;;;;;;;;;;;;;;;;;;;;;;;;;;;;;&;2,;;-;;;-;                                        ",
"                                                                                                                                ",
"                                                                                                                                ",
"                                                                                                                                ",
"                                                                                                                                ",
"                                                                                                                                ",
"                                                                                                                                "
};
