/* XPM */
static char *_b82327abd82433dfef0b5715fc3aded[] = {
/* columns rows colors chars-per-pixel */
"64 64 52 1 ",
"  c None",
". c #2FCE88",
"X c #35CE8C",
"o c #39CF8E",
"O c #37D08E",
"+ c #39D08E",
"@ c #3CCF90",
"# c #3DD091",
"$ c #41CF93",
"% c #41D193",
"& c #48D397",
"* c #47D498",
"= c #4CD49A",
"- c #53D59D",
"; c #5BD79F",
": c #57D6A1",
"> c #5AD7A1",
", c #5CD8A3",
"< c #63DAA7",
"1 c #66DAA9",
"2 c #6ADBAB",
"3 c #71DDAF",
"4 c #75DDB1",
"5 c #7BDFB4",
"6 c #7DE0B6",
"7 c #81DFB7",
"8 c #82E1B7",
"9 c #84E2BA",
"0 c #8BE3BD",
"q c #8FE4C0",
"w c #94E5C2",
"e c #9AE7C6",
"r c #9EE7C9",
"t c #A4E9CC",
"y c #AAEACF",
"u c #ADECD1",
"i c #B2ECD3",
"p c #B8EDD6",
"a c #BCEFD9",
"s c #BFF0DB",
"d c #C4F1DD",
"f c #C9F2DE",
"g c #CBF3E2",
"h c #D2F4E5",
"j c #D5F5E8",
"k c #DAF6EA",
"l c #E2F8EE",
"z c #E6F9F1",
"x c #ECFAF4",
"c c #F1FCF7",
"v c #F5FDF9",
"b c #FFFFFF",
/* pixels */
"                                                                ",
"                                                                ",
"                                                                ",
"                   #%%%%%%%%%%%%%%%%%%%%%%%%%%%%%%%%%%%%%%%%%   ",
"                %%%%%$%%%%%%%%%%%%%%%%%%%%%%%%%%%%%%%%%%%%%%%   ",
"              %%$%%%%%%%%%%%%%%%%%%%%%%%%%%%%%%%%%%%%%%%%%%%%   ",
"            %%%%%%%%%%%%%%%%%%%%%%%%%%%%%%%%%%%%%%%%%%%%%%%%%   ",
"           #%%%%%%%%%%%%%%%%%%%%%%%%%%%%%%%%%%%%%%%%%%%%%%%%%   ",
"          %%%%%%%%%%%%%%%%%%%%%%%%%%%%%%%%%%%%%%%%%%%%%%%%%%%   ",
"         %%*%%%%%%%%%%%%%%%%%%%%%%%%%%%%%%%%%%%%%%%%%%%%%%%%%   ",
"        %%%%%%%%#%%%%%%%%%%%%%%%%%%%%%%%%%%%%%%%%%%%%%%%%%%%%   ",
"       +%%%%%%%%%%%%%%%%%%%%%%%%%%%%%#%%%%%%%%%%%%%%%%%%%%%%%   ",
"      -o%%%%%%%%%%%%%%%%%%%%%%*#oXo+%%%%%%%%%%%%%%%%%%%%%%%%%   ",
"      *#%%%%%%%%%%%%%%%%%%%%%%o@,22=o#%%%%%%%%%%%$%%%%%%%%%%%   ",
"     #@%%%%%%%%%%%%%%%%%%%%%%@-uxbbk9#@%%%%%%%%%%%%%%%%%%%%%%   ",
"    %%%%%%%%%%%%%%%%%%%%%%%%o*gbbbbbvqo%%%%%%%%%%%%%%%%%%%%%%   ",
"    *%%%%%%%%%%%%%%%%%%%%%%#Owbbbbbbbl-o%%%%%%%%%%%%%%%%%%%%%   ",
"    $$%%%%%%%%%%%%%%%%%%%$%#%gbbbbbbbb9X%%%%++$%%%%%%%%%%%%%%   ",
"    $%%%%%%%%%%%%%%%%%%%%%%X4vbbbbbbbb0X%%oo&&@o##%%%%%%%%%%%   ",
"   %$%%%%%%%%%%%%%%%%%%%%%o%gbbbbbbbbb5X%o;iklg7##%%%%%%%%%%%   ",
"   %$%%%%%%%%%%%%%#oOOoooX&abbbbbbbbbk=#+<lbbbbbt##%%%%%%%%%%   ",
"   %%%%%%%%%%%%%%+o-22,>1wkbbbbbbbbbx3o+*hbbbbbbb6o%%%%%%%%%%   ",
"   %%%%%%%%%%%@%#*rxbbvvvbbbbvkhjxza2o%X5bbbbbbbbdo#%%%%%%%%%   ",
"   %%$%%%%%#*%%##ybbbbbbbbbvu<=*=;;@o%#opbbbbbbbbk##%%%%%%%%%   ",
"   %%%%%%%%%%#*o5bbbbbbbbbv9oo@@oo@#%%X2vbbbbbbbbh#@%%%%%%%%%   ",
"   %%%%%%%%%%%##ibbbbbbbbbto@%%##@##oX>kbbbbbbbbbeo%%%%%%%%%%   ",
"   %%#%%%%%%%%##dbbbbbbbbz-o%#o*-%@%>0lbbbbbbbbbj=o%%%%%%%%%%   ",
"   %%%%%%%%%%%#@ybbbbbbbbto$o=thkhghzbbbbvcxvbcs-o%%%%%%%%%%%   ",
"   %%%%%%%%%%#%o2vbbbbbbx,O+:jbbbbbbbbbcy522592#o%%%%%%%%%%%%   ",
"   %%%%%%%%%%%%#@rbbbbbv0o##abbbbbbbvbl2Xoooooo#%%%%%%%%%%%%%   ",
"   %%%%%%%%%%%%%#+9gzzd3o%O<cbbbbbbbbc2X%%%###%%%%%%%%%%%%%%%   ",
"   %%%%%%%%%*%%%%%X*>;@o##oebbbbbbbbbyo#%+o%%oo%%%%%%%%%%%%%%   ",
"   %%%%%%%%%%%%%%%%#++#%%o>xbbbbbbbbc,+%+=qsdt1o#%%%%%%%%%%%%   ",
"   %%%%%%%%%%%%%%%##%%##X*dbbbbbbbbbp@%+>hbbbbc9+%%%%%%%%%%%%   ",
"   %%%%%%%%%%%$%#O%&*o#=2gbbbbbbbbbx,o#*fbbbbbbc2O%%%%%%%%%%%   ",
"   %%%%%%%%%%%*+&wfjfddkbbbbbvvvvvg1o%o2bbbbbbbbio%%%%%%%%%%%   ",
"   %%%%%%%%%#%#=gbbbbbbbbbvd042582%o%%Xubbbbbbbbg*##%%%%%%%%%   ",
"   %%%%%%%%%%%oubbbbbbbbbc9oo+ooo@#%#X<cbbbbbbbbg*#%%%%%%%%%%   ",
"   %%%$%%%%%%o,xbbbbbbbbv9X#%%###@%@X&gbbbbbbbbbro#%%%%%%%%%%   ",
"   %$%%%%%%%%X2bbbbbbbbbg####o#%##%+2hbbbbbbbbbl>O%%%%%%%%%%%   ",
"   %%%%%%%%%%o2bbbbbbbbb4o#o%9agaiphvbbbbbbbbbj1o%%%%%%%%%%%%   ",
"   %%%%%%%%%##*jbbbbbbbg*#@=abbbbbbbbbbfw99we8=o#%%%%%%%%%%%%   ",
"   %%%%%%%%%%%o9vbbbbbc2o#oubbbbbbbbbc9%XXX.oO#%%%%%%%%%%%%%%   ",
"   #%%$%%%%%#%#@0xbbbk4o%o>cbbbbbbbbv6.@#%%%%%%#%%%%%%%%%%%%%   ",
"   =$%#%%%%%%%%#@=6q4=X#%o5bbbbbbbbbio#%%%%%%%%%%%%%%%%%%%%%    ",
"    @%%%%%%%%%%%#oo@o@%%%o3vbbbbbbbv2o%%%%%%%%%%%%%%%%%%%%#%    ",
"    #%%%%%%%%%%%%%%%%%%%%o-xbbbbbbbdo#%%%%%%%%%%%%%%%%%%%%%%    ",
"    %%%%%%%%%%%%%%%%%%%%%%owbbbbbbv2o%%%%%%%%%%%%%%%%%%%%#%     ",
"    %%#%%%%$%%%%%%%%%%%%%%@%rxbbbk6o#%%%%%%%%%%%%%%%%%%%%%%     ",
"     %%%%%%@%%%%%%%%%%%%%%%#o<wt0-o%%%%#%%%%%%%%%%%%%%%%%%      ",
"      %%%%*%%%%%%%%%%%%%%%%%#+XXo@%%%%%%%%%%%%%%%%%%%%%%%%      ",
"      %%%%$%%%%%%%%%%%%%%%%%%%#%%%%%%%%%%%%%%%%%%%%%%%%%%       ",
"       *%%%%%%%%%%%%%%%%%%%%%%%#%%%%%%%%%%%%%%%%%%%%%%%%        ",
"        %%%%%%%%%%%%%%%%%%%%$%%%%%%%%%%%%%%%%%%%%%%%%%#         ",
"         %%%%%%%#%%%%%%%%%%%$%%%%%%%%%%%%%%%%%%%%%%%%@          ",
"          %%%%%%%%%%%%%%%%%%%%%%%%%%%%%%%%%%%%%%%%%%$           ",
"           %*%%#%%%%%%%%%%%%%%%%%%%%%%%%%%%%%%%%%%%%            ",
"             %%%%%%%%%%%%%%%%%%%%%%%%%%%%%%%%%%%%%%             ",
"              %%+%%%%%%%%%%%%%%%%%%%%%%%%%%%%%%%%%              ",
"                <%%%%%%%%%%%%%%%%%%%%%%+%%%%%%*                 ",
"                   %%%%%%%%%%%%%%%%%%%%*%%%%                    ",
"                                                                ",
"                                                                ",
"                                                                "
};
