/* XPM */
static char *_e0527b24ed6431283a9672372bc5708[] = {
/* columns rows colors chars-per-pixel */
"32 32 190 2 ",
"   c None",
".  c #28CB85",
"X  c #29CB85",
"o  c #2ACC85",
"O  c #29CC86",
"+  c #2ACC86",
"@  c #2BCC87",
"#  c #2BCD87",
"$  c #2CCC87",
"%  c #2BCC88",
"&  c #2ECD88",
"*  c #2FCC89",
"=  c #2FCD89",
"-  c #30CD89",
";  c #30CD8A",
":  c #32CE8B",
">  c #34CE8B",
",  c #33CD8C",
"<  c #34CE8C",
"1  c #35CE8D",
"2  c #36CE8D",
"3  c #37CE8D",
"4  c #36CF8D",
"5  c #37CF8D",
"6  c #37CF8E",
"7  c #38CE8D",
"8  c #38CF8E",
"9  c #39CF8E",
"0  c #38CF8F",
"q  c #39CF8F",
"w  c #3ACF8E",
"e  c #3ACF8F",
"r  c #3BCF8F",
"t  c #39D08E",
"y  c #39D08F",
"u  c #3AD08E",
"i  c #3AD08F",
"p  c #3BD08F",
"a  c #3BCF90",
"s  c #3CCF91",
"d  c #3BD090",
"f  c #3BD191",
"g  c #3CD090",
"h  c #3DD090",
"j  c #3DD091",
"k  c #3ED091",
"l  c #3FD091",
"z  c #3ED191",
"x  c #3ED092",
"c  c #3FD092",
"v  c #3FD192",
"b  c #3FD193",
"n  c #40D092",
"m  c #40D192",
"M  c #40D093",
"N  c #41D093",
"B  c #40D193",
"V  c #41D193",
"C  c #42D193",
"Z  c #41D292",
"A  c #40D293",
"S  c #41D293",
"D  c #42D293",
"F  c #40D194",
"G  c #41D194",
"H  c #42D194",
"J  c #43D194",
"K  c #41D294",
"L  c #42D294",
"P  c #43D294",
"I  c #42D295",
"U  c #44D195",
"Y  c #46D295",
"T  c #46D296",
"R  c #47D397",
"E  c #49D397",
"W  c #4BD399",
"Q  c #4CD499",
"!  c #4ED49A",
"~  c #4FD59B",
"^  c #51D59C",
"/  c #52D59D",
"(  c #52D69D",
")  c #55D69F",
"_  c #57D6A0",
"`  c #59D7A1",
"'  c #5BD7A3",
"]  c #5AD8A1",
"[  c #5DD8A3",
"{  c #5FD8A3",
"}  c #5ED8A4",
"|  c #5FD9A4",
" . c #60D9A5",
".. c #61D9A5",
"X. c #61D9A6",
"o. c #66DAA7",
"O. c #65DAA8",
"+. c #66DAA9",
"@. c #67DAA9",
"#. c #69DAAA",
"$. c #69DBAA",
"%. c #6DDCAC",
"&. c #6DDCAD",
"*. c #6FDDAE",
"=. c #72DDAE",
"-. c #73DDB0",
";. c #76DDB1",
":. c #76DEB0",
">. c #78DEB2",
",. c #7DDFB5",
"<. c #80E1B7",
"1. c #82E1B7",
"2. c #81E1B8",
"3. c #85E1B9",
"4. c #85E2BA",
"5. c #87E2BA",
"6. c #87E2BB",
"7. c #89E2BC",
"8. c #8AE3BD",
"9. c #8DE3BF",
"0. c #8EE3BF",
"q. c #8DE4BE",
"w. c #8FE4BF",
"e. c #90E3BF",
"r. c #8EE4C0",
"t. c #8FE4C0",
"y. c #91E4C0",
"u. c #90E5C1",
"i. c #93E5C1",
"p. c #95E5C3",
"a. c #95E6C4",
"s. c #9BE6C6",
"d. c #9BE7C6",
"f. c #9FE8C8",
"g. c #A0E8C9",
"h. c #A3E8CA",
"j. c #A2E9CB",
"k. c #A3E9CB",
"l. c #ACEBD0",
"z. c #AEEBD0",
"x. c #AEECD1",
"c. c #B3EDD4",
"v. c #B7EED6",
"b. c #BAEED8",
"n. c #BDEFDA",
"m. c #BFEFDA",
"M. c #BEEFDB",
"N. c #C0EFDB",
"B. c #C0F0DB",
"V. c #C1F0DC",
"C. c #C6F1DF",
"Z. c #C6F2DF",
"A. c #C9F2E1",
"S. c #CBF3E1",
"D. c #CCF2E3",
"F. c #CCF3E3",
"G. c #CFF3E4",
"H. c #D1F4E5",
"J. c #D4F5E6",
"K. c #D4F5E7",
"L. c #D6F4E8",
"P. c #D7F5E9",
"I. c #D9F6E9",
"U. c #DAF6E9",
"Y. c #DAF6EA",
"T. c #DBF6EA",
"R. c #DFF7ED",
"E. c #E3F9EF",
"W. c #E4F8EF",
"Q. c #E4F9EF",
"!. c #ECFAF4",
"~. c #EDFBF4",
"^. c #EFFBF6",
"/. c #F0FBF6",
"(. c #F3FCF8",
"). c #F4FCF9",
"_. c #F4FDF9",
"`. c #F7FDFA",
"'. c #F8FDFB",
"]. c #F8FEFB",
"[. c #F9FDFC",
"{. c #FAFDFC",
"}. c #FBFEFC",
"|. c #FBFEFD",
" X c #FCFEFD",
".X c #FDFEFE",
"XX c #FDFFFE",
"oX c #FEFFFE",
"OX c #FEFFFF",
"+X c white",
/* pixels */
"                                                                ",
"                    V V V V V V V V V V V V V V V V V V V V     ",
"              V V V V V V V V V V V V V V V V V V V V V V V V   ",
"            F V V V V V V V V V V V V V V V V V V V V V V V V   ",
"          F J V V V V V V V V V V V V V V V V V V V V V V V V   ",
"        x F V V V V V V V V V V x u V V V V V V V V V V V V V   ",
"      W V V V V V V V V V V V u ) ( u x V V V V V V V V V V V   ",
"    e V V V V V V V V V V x x l.]./.w.e V V V V V V V V V V V   ",
"    V V V V V V V V V V F 1 >.+X+X+X].` p e ; e V V V V V V V   ",
"    V V V V V V V x u p 1 e S.+X+X+X+Xo.; o.a.;.d x V V V V V   ",
"  V V V V V V F e Y ] ( [ v.+X+X+X+XZ.e %.).+X+Xa.u V V V V V   ",
"  F V V V V V u } T.{.).{.+Xn.r.s.9.Y ; A.+X+X+XQ.F x V V V V   ",
"  V V V V V V u Z.+X+X+X+Xd.& O + + + ,.+X+X+X+XK.x V V V V V   ",
"  V V V V V x x T.+X+X+XR.d x <.i.5.z.+X+X/.{.Q.%.e V V V V V   ",
"  V V V V V V e 9.+X+X+X,.& c.+X+X+X+XG.#.)  .^ e V V V V V V   ",
"  V V V V V J V u >.k.=.;  .+X+X+X+XW.Y + e e ; V V V V V V V   ",
"  V V V V V V J u O O O e N.+X+X+X+Xi.+ &.F.K.5.e x V V V V V   ",
"  V V V V V V w ` w.5.7.S.+X{.].{.n.s E ^.+X+X+X#.u V V V V V   ",
"  V V V V V e  .^.+X+X+X+Xg. .` [ e O i.+X+X+X+Xw.1 F V V V V   ",
"  V V V V V > l.+X+X+X+Xk.O & s e x ;.(.+X+X+X).} u V V V V V   ",
"  V V V V V ; k.+X+X+X^.Q e f.T.K.T.+X^.n.n.n.-.u V V V V V V   ",
"  V V V V V x ~ H.+X^.<.% y.+X+X+X+XP.( 1 1 u u V V V V V V V   ",
"    s F V V V x Y O.) e 1 v.+X+X+X+XO.; V V V V V V V V V V     ",
"    V V V V V F x e u x 1 5.+X+X+XV.e b V V V V V V V V F V     ",
"    V V V V V V V V V V V p 8.Z.l.~ x V V V V V V V V F F       ",
"      J V V V V V V V V V V 1 u u p V V V V V V V V V V V       ",
"        V V V V V V V V V V V V x V V V V V V V V V V V         ",
"          V V V V V V V V V V V V V V V V V F V V F V           ",
"            F V x V V V V V V V V V V V V V V V V Y             ",
"              F E V V V V V V V V V V x V V V V                 ",
"                                                                ",
"                                                                "
};
