<?xml version="1.0" encoding="utf-8"?>
<!-- Generator: Adobe Illustrator 23.0.0, SVG Export Plug-In . SVG Version: 6.00 Build 0)  -->
<svg version="1.1" id="ic_ers" xmlns="http://www.w3.org/2000/svg" xmlns:xlink="http://www.w3.org/1999/xlink" x="0px" y="0px"
	 viewBox="0 0 24 24" style="enable-background:new 0 0 24 24;" xml:space="preserve">
<style type="text/css">
	.st0{fill:#203F73;}
	.st1{fill:none;}
</style>
<g>
	<path fill="none" d="M12,2.8c-5.1,0-9.3,4-9.3,9.2S6.9,21.3,12,21.3s9.3-4,9.3-9.201C21.3,6.9,17.1,2.8,12,2.8z M12,20.5
		c-4.7,0-8.5-3.801-8.5-8.5c0-4.7,3.8-8.5,8.5-8.5c4.699,0,8.5,3.8,8.5,8.5C20.5,16.699,16.699,20.5,12,20.5z"/>
	<path fill="none" d="M7.099,10.255c0,0,0,0.802,0,3.603c0,2.801,2.95,2.949,2.95,2.949s1.158,0,3.902,0
		c2.95,0,2.95-2.949,2.95-2.949V7.192h-6.74C7.174,7.192,7.099,10.255,7.099,10.255z M14.56,13.586
		c-0.587,0.339-0.996-0.07-1.492,0.217c-0.496,0.286-0.367,0.857-0.952,1.194c-0.927,0.536-1.714-0.922-0.828-1.434
		c0.626-0.361,1.058,0.102,1.54-0.177c0.481-0.278,0.421-0.956,0.877-1.219C14.645,11.625,15.458,13.066,14.56,13.586z
		 M13.996,9.865c0.938-0.542,1.753,0.899,0.854,1.418c-0.586,0.339-0.996-0.07-1.492,0.216c-0.495,0.286-0.284,0.809-0.881,1.153
		c-0.678,0.392-1.053-0.071-1.573,0.229s-0.253,0.825-0.93,1.216c-0.924,0.534-1.714-0.922-0.827-1.433
		c0.635-0.368,1.01,0.101,1.532-0.2c0.522-0.302,0.29-0.853,0.963-1.241c0.644-0.372,1,0.136,1.476-0.14
		C13.594,10.81,13.54,10.128,13.996,9.865z M11.003,10.226c0.482-0.278,0.421-0.957,0.878-1.22c0.938-0.542,1.753,0.9,0.853,1.419
		c-0.586,0.338-0.996-0.07-1.491,0.216c-0.495,0.286-0.367,0.856-0.952,1.194c-0.927,0.536-1.714-0.922-0.828-1.434
		C10.089,10.041,10.521,10.504,11.003,10.226z"/>
	<path fill="#41D193" d="M12,2C6.5,2,2,6.5,2,12c0,5.5,4.5,10,10,10c5.5,0,10-4.5,10-10C22,6.5,17.5,2,12,2z M12,21.3
		c-5.1,0-9.3-4.1-9.3-9.3S6.9,2.8,12,2.8s9.3,4.101,9.3,9.3C21.3,17.301,17.1,21.3,12,21.3z"/>
	<path fill="#41D193" d="M11.643,11.224c-0.673,0.389-0.44,0.939-0.963,1.241c-0.522,0.301-0.897-0.167-1.532,0.2
		c-0.887,0.511-0.097,1.967,0.827,1.433c0.677-0.391,0.41-0.916,0.93-1.216s0.895,0.163,1.573-0.229
		c0.597-0.344,0.386-0.867,0.881-1.153c0.496-0.286,0.905,0.123,1.492-0.216c0.899-0.52,0.084-1.96-0.854-1.418
		c-0.457,0.263-0.402,0.944-0.878,1.219C12.643,11.359,12.286,10.852,11.643,11.224z"/>
	<path fill="#41D193" d="M13.706,12.167c-0.457,0.264-0.396,0.941-0.877,1.219c-0.482,0.278-0.914-0.185-1.54,0.177
		c-0.887,0.512-0.1,1.97,0.828,1.434c0.585-0.337,0.457-0.908,0.952-1.194c0.496-0.287,0.905,0.122,1.492-0.217
		C15.458,13.066,14.645,11.625,13.706,12.167z"/>
	<path fill="#41D193" d="M9.463,10.402c-0.886,0.512-0.1,1.969,0.828,1.434c0.585-0.338,0.458-0.908,0.952-1.194
		c0.496-0.286,0.905,0.122,1.491-0.216c0.9-0.52,0.085-1.961-0.853-1.419c-0.457,0.263-0.396,0.941-0.878,1.22
		C10.521,10.504,10.089,10.041,9.463,10.402z"/>
	<path fill="#41D193" d="M12,3.5c-4.7,0-8.5,3.8-8.5,8.5c0,4.699,3.8,8.5,8.5,8.5c4.699,0,8.5-3.801,8.5-8.5
		C20.5,7.3,16.699,3.5,12,3.5z M16.901,13.857c0,0,0,2.949-2.95,2.949c-2.744,0-3.902,0-3.902,0s-2.95-0.148-2.95-2.949
		c0-2.8,0-3.603,0-3.603s0.075-3.063,3.062-3.063h6.74V13.857z"/>
</g>

</svg>
