<?xml version="1.0" encoding="utf-8"?>
<!-- Generator: Adobe Illustrator 16.0.0, SVG Export Plug-In . SVG Version: 6.00 Build 0)  -->
<!DOCTYPE svg PUBLIC "-//W3C//DTD SVG 1.1//EN" "http://www.w3.org/Graphics/SVG/1.1/DTD/svg11.dtd">
<svg version="1.1" id="ic_staking_on" xmlns="http://www.w3.org/2000/svg" xmlns:xlink="http://www.w3.org/1999/xlink" x="0px"
	 y="0px" width="612px" height="792px" viewBox="0 0 612 792" enable-background="new 0 0 612 792" xml:space="preserve">
<g id="Group_9018">
	<g id="Group_9016">
		<ellipse id="Ellipse_613" fill="#D6D6D6" cx="489.6" cy="432.72" rx="73.44" ry="24.48"/>
		<ellipse id="Ellipse_614" fill="#D6D6D6" cx="391.68" cy="506.16" rx="73.44" ry="24.48"/>
		<path id="Rectangle_4669" fill="#D6D6D6" d="M195.84,236.88h85.68v85.68h-85.68V236.88z"/>
	</g>
	<g id="Group_9017">
		<path id="Rectangle_4670" fill="#666666" d="M73.44,457.2h12.24v24.479H73.44V457.2z"/>
		<path id="Path_18975" fill="#666666" d="M563.04,444.96c3.672-3.06,5.508-7.344,6.12-12.24c0-20.194-39.78-30.6-79.562-30.6
			c-39.778,0-79.56,10.404-79.56,30.6c0,4.896,2.448,9.182,6.12,12.24c-6.732,5.508-7.956,15.3-2.448,22.032
			c0.612,0.61,1.224,1.836,2.448,2.448c-1.836,1.836-3.672,4.282-4.896,7.344c-2.446,0-4.896-0.612-7.344-0.612V328.68h30.6v-97.92
			H321.912c23.868-18.972,27.54-53.856,8.568-77.112c-18.974-23.256-53.856-27.54-77.112-8.568
			c-6.12,4.896-11.016,11.016-14.688,17.748c-14.076-26.928-47.124-37.944-74.052-23.868
			c-26.928,14.076-37.944,47.124-23.868,74.052c3.672,6.732,8.568,12.852,14.688,17.748H42.84v97.92h30.6v104.04h12.24V328.68h306
			V475.56c-39.778,0-79.56,10.404-79.56,30.602c0,4.896,2.448,9.18,6.12,12.24c-6.732,5.508-7.956,15.3-2.448,22.03
			c0.612,0.612,1.224,1.836,2.448,2.448c-1.836,1.836-3.672,3.672-4.284,6.12H85.68v-42.84H73.44v55.08h239.904
			c1.226,2.447,2.448,4.284,4.284,6.12c-6.73,5.508-7.956,15.3-2.448,22.03c0.612,0.612,1.226,1.836,2.448,2.448
			c-6.73,5.508-7.956,15.3-2.448,22.032c0.612,0.612,1.226,1.836,2.448,2.448c-3.672,3.06-5.508,7.344-6.12,12.238
			c0,20.196,39.78,30.602,79.562,30.602c36.106,0,72.216-8.568,78.336-25.704c6.12,0.612,12.852,1.224,19.584,1.224
			c39.778,0,79.56-10.402,79.56-30.6c0-4.896-2.448-9.18-6.12-12.24c6.732-5.508,7.956-15.3,2.448-22.032
			c-0.612-0.61-1.224-1.836-2.448-2.446c6.732-5.509,7.956-15.302,2.448-22.032c-0.612-0.612-1.224-1.836-2.448-2.448
			c6.732-5.508,7.956-15.3,2.448-22.032c-0.612-0.61-1.224-1.836-2.448-2.446c6.732-5.509,7.956-15.302,2.448-22.032
			c-0.612-0.612-1.224-1.836-2.448-2.448c6.732-5.508,7.956-15.3,2.448-22.032c-0.612-0.61-1.224-1.836-2.448-2.446
			c6.732-5.51,7.956-15.302,2.448-22.032C564.876,446.184,564.264,445.572,563.04,444.96z M189.72,316.44H55.08V243h134.64V316.44z
			 M146.88,187.92c0-23.868,18.972-42.84,42.84-42.84c23.868,0,42.84,18.972,42.84,42.84v42.84h-42.84
			C165.852,230.76,146.88,211.788,146.88,187.92z M275.4,316.44h-73.44V243h73.44V316.44z M244.8,230.76v-42.84
			c0-23.868,18.972-42.84,42.84-42.84c23.868,0,42.84,18.972,42.84,42.84s-18.974,42.84-42.84,42.84H244.8z M287.64,316.44V243
			h134.64v73.44H287.64z M312.12,555.12c0,1.224,0,1.836,0.612,3.06C312.12,556.956,312.12,556.344,312.12,555.12z M391.68,646.92
			c-43.452,0-67.318-12.24-67.318-18.36c0-1.224,1.224-3.06,4.282-4.896c15.302,7.344,39.168,11.016,63.036,11.016
			s47.736-3.672,63.036-11.016c2.448,1.836,4.284,3.672,4.284,4.896C459,634.68,435.132,646.92,391.68,646.92z M391.68,622.44
			c-43.452,0-67.318-12.24-67.318-18.36c0-1.224,1.224-3.061,4.282-4.896c15.302,7.346,39.168,11.018,63.036,11.018
			s47.736-3.672,63.036-11.018c2.448,1.836,4.284,3.673,4.284,4.896C459,610.2,435.132,622.44,391.68,622.44z M391.68,597.96
			c-43.452,0-67.318-12.24-67.318-18.36c0-1.224,1.224-3.06,4.282-4.896c15.302,7.344,39.168,11.016,63.036,11.016
			s47.736-3.672,63.036-11.016c2.448,1.836,4.284,3.672,4.284,4.896C459,585.72,435.132,597.96,391.68,597.96z M391.68,573.48
			c-43.452,0-67.318-12.24-67.318-18.36c0-1.224,1.224-3.062,4.282-4.896c15.302,7.346,39.168,11.018,63.036,11.018
			s47.736-3.672,63.036-11.018c2.448,1.836,4.284,3.673,4.284,4.896C459,561.24,435.132,573.48,391.68,573.48z M391.68,549
			c-43.452,0-67.318-12.24-67.318-18.36c0-1.224,1.224-3.06,4.282-4.896c15.302,7.344,39.168,11.016,63.036,11.016
			s47.736-3.672,63.036-11.016c2.448,1.836,4.284,3.672,4.284,4.896C459,536.76,435.132,549,391.68,549z M391.68,524.52
			c-43.452,0-67.318-12.238-67.318-18.358s23.866-18.36,67.318-18.36S459,500.04,459,506.16S435.132,524.52,391.68,524.52z
			 M489.6,622.44c-7.344,0-14.074-0.612-20.194-1.226c-1.226-1.836-2.448-3.672-3.672-4.896c1.836-1.836,3.672-4.284,4.896-7.346
			c6.12,0.612,12.854,1.226,19.584,1.226c23.868,0,47.736-3.672,63.036-11.018c2.448,1.836,4.284,3.672,4.284,4.896
			C556.92,610.2,533.052,622.44,489.6,622.44z M489.6,597.96c-7.344,0-14.074-0.612-20.194-1.224
			c-1.226-1.836-2.448-3.672-3.672-4.896c1.836-1.836,3.672-4.284,4.896-7.344c6.12,0.612,12.854,1.224,19.584,1.224
			c23.868,0,47.736-3.672,63.036-11.016c2.448,1.836,4.284,3.672,4.284,4.896C556.92,585.72,533.052,597.96,489.6,597.96z
			 M489.6,573.48c-7.344,0-14.074-0.612-20.194-1.226c-1.226-1.836-2.448-3.672-3.672-4.896c1.836-1.836,3.672-4.284,4.896-7.346
			c6.12,0.612,12.854,1.226,19.584,1.226c23.868,0,47.736-3.672,63.036-11.018c2.448,1.836,4.284,3.672,4.284,4.896
			C556.92,561.24,533.052,573.48,489.6,573.48z M489.6,549c-7.344,0-14.074-0.612-20.194-1.224
			c-1.226-1.836-2.448-3.673-3.672-4.896c1.836-1.836,3.672-4.284,4.896-7.344c6.12,0.612,12.854,1.224,19.584,1.224
			c23.868,0,47.736-3.672,63.036-11.016c2.448,1.836,4.284,3.672,4.284,4.896C556.92,536.76,533.052,549,489.6,549z M489.6,524.52
			c-7.344,0-14.074-0.61-20.194-1.224c-1.226-1.836-2.448-3.672-3.672-4.896c1.836-1.836,3.672-4.284,4.896-7.346
			c6.12,0.612,12.854,1.226,19.584,1.226c23.868,0,47.736-3.672,63.036-11.018c2.448,1.836,4.284,3.672,4.284,4.896
			C556.92,512.28,533.052,524.52,489.6,524.52z M489.6,500.04c-7.344,0-14.074-0.612-20.194-1.224
			c-3.672-7.346-13.464-12.854-25.704-16.524c15.3,3.672,30.6,5.508,45.898,5.508c23.868,0,47.736-3.672,63.036-11.016
			c2.448,1.836,4.284,3.672,4.284,4.896C556.92,487.8,533.052,500.04,489.6,500.04z M424.728,478.008
			c0.612-0.61,1.226-1.224,1.838-1.836c3.672,1.836,7.344,3.062,11.016,4.284C433.296,479.844,429.012,478.62,424.728,478.008z
			 M489.6,475.56c-43.45,0-67.318-12.238-67.318-18.358c0-1.226,1.224-3.062,4.284-4.896c15.3,7.346,39.168,11.018,63.034,11.018
			c23.868,0,47.736-3.672,63.036-11.018c2.448,1.836,4.284,3.672,4.284,4.896C556.92,463.32,533.052,475.56,489.6,475.56z
			 M489.6,451.08c-43.45,0-67.318-12.24-67.318-18.36s23.868-18.358,67.318-18.358c43.452,0,67.32,12.238,67.32,18.358
			S533.052,451.08,489.6,451.08z"/>
	</g>
</g>
<path id="Rectangle_4672" fill="none" d="M0,90h612v612H0V90z"/>
<path fill="#666666" d="M201.692,375.5c-40.592,0-41.608,41.609-41.608,41.609s0,10.907,0,48.963
	c0,38.059,40.087,40.088,40.087,40.088s15.73,0,53.023,0c40.087,0,40.087-40.088,40.087-40.088V375.5H201.692z M192.206,421.071
	c8.511-4.913,14.378,1.385,20.926-2.396c6.548-3.781,5.727-12.989,11.926-16.568c12.755-7.364,23.826,12.223,11.604,19.28
	c-7.971,4.603-13.534-0.948-20.268,2.939c-6.733,3.889-4.985,11.641-12.939,16.231C190.852,447.835,180.159,428.028,192.206,421.071
	z M261.463,464.342c-7.972,4.604-13.534-0.947-20.268,2.941c-6.735,3.887-4.986,11.639-12.94,16.23
	c-12.604,7.275-23.295-12.528-11.25-19.484c8.513-4.914,14.379,1.382,20.926-2.397c6.548-3.78,5.727-12.989,11.928-16.569
	C262.613,437.697,273.685,457.285,261.463,464.342z M265.414,433.052c-7.972,4.604-13.533-0.949-20.268,2.939
	c-6.734,3.889-3.869,10.996-11.97,15.675c-9.212,5.316-14.313-0.973-21.377,3.105c-7.063,4.078-3.437,11.219-12.634,16.529
	c-12.559,7.25-23.296-12.532-11.25-19.485c8.64-4.987,13.726,1.381,20.822-2.717c7.097-4.097,3.942-11.58,13.089-16.861
	c8.744-5.05,13.588,1.838,20.058-1.896c6.468-3.734,5.727-12.991,11.927-16.57C266.564,406.407,277.636,425.994,265.414,433.052z"/>
</svg>
