<?xml version="1.0" encoding="utf-8"?>
<!-- Generator: Adobe Illustrator 16.0.0, SVG Export Plug-In . SVG Version: 6.00 Build 0)  -->
<!DOCTYPE svg PUBLIC "-//W3C//DTD SVG 1.1//EN" "http://www.w3.org/Graphics/SVG/1.1/DTD/svg11.dtd">
<svg version="1.1" id="Layer_1" xmlns="http://www.w3.org/2000/svg" xmlns:xlink="http://www.w3.org/1999/xlink" x="0px" y="0px"
	 width="612px" height="792px" viewBox="0 0 612 792" enable-background="new 0 0 612 792" xml:space="preserve">
<path fill="#41D193" d="M208.003,151.36c-154.488,0-158.355,158.359-158.355,158.359s0,41.516,0,186.349
	c0,144.846,152.566,152.571,152.566,152.571s59.867,0,201.797,0c152.572,0,152.572-152.571,152.572-152.571V151.36H208.003z
	 M171.902,324.798c32.39-18.697,54.72,5.272,79.642-9.119c24.921-14.39,21.796-49.435,45.392-63.06
	c48.542-28.026,90.676,46.52,44.163,73.381c-30.342,17.514-51.51-3.613-77.142,11.186c-25.625,14.8-18.971,44.303-49.244,61.777
	C166.749,426.66,126.052,351.275,171.902,324.798z M435.485,489.482c-30.339,17.523-51.507-3.605-77.138,11.195
	c-25.632,14.792-18.974,44.296-49.246,61.768c-47.97,27.689-88.659-47.677-42.817-74.151c32.396-18.704,54.722,5.26,79.642-9.125
	c24.921-14.386,21.799-49.436,45.396-63.058C439.862,388.074,482.007,462.627,435.485,489.482z M450.524,370.397
	c-30.345,17.519-51.507-3.612-77.141,11.188c-25.627,14.799-14.728,41.85-45.559,59.656c-35.059,20.233-54.473-3.7-81.358,11.819
	c-26.881,15.518-13.082,42.697-48.083,62.906c-47.798,27.592-88.662-47.697-42.816-74.158c32.883-18.979,52.24,5.257,79.245-10.342
	c27.011-15.592,15.005-44.072,49.816-64.175c33.278-19.215,51.718,6.997,76.338-7.216c24.62-14.215,21.8-49.441,45.396-63.063
	C454.899,268.99,497.044,343.535,450.524,370.397z"/>
</svg>
