<svg xmlns="http://www.w3.org/2000/svg" viewBox="0 0 1920 1080">    
    <title>Eros - Logo Design _1</title>
<g>
	<path fill="none" d="M911.339,439.052c-15.649-7.193-32.104-10.795-49.352-10.795c-28.464,0-52.919,9.045-73.369,27.125
		c-14.941,13.165-26.239,32.914-33.884,59.246h216.102c-4.982-19.655-12.228-35.367-21.743-47.135
		C939.574,455.733,926.989,446.252,911.339,439.052z"/>
	<path fill="none" d="M220.563,471.198c-43.628,25.196-4.904,96.929,40.736,70.573c28.805-16.626,22.474-44.702,46.857-58.783
		c24.391-14.082,44.535,6.022,73.407-10.645c44.261-25.562,4.167-96.496-42.026-69.827c-22.449,12.965-19.477,46.313-43.191,60.005
		C272.632,476.215,251.385,453.408,220.563,471.198z"/>
	<path fill="none" d="M327.83,511.632c-33.127,19.132-21.701,46.232-47.406,61.066c-25.695,14.843-44.114-8.218-75.405,9.844
		c-43.625,25.178-4.742,96.82,40.743,70.562c33.306-19.226,20.175-45.091,45.753-59.856c25.583-14.768,44.058,8.006,77.418-11.247
		c29.339-16.944,18.967-42.683,43.352-56.767c24.395-14.081,44.529,6.025,73.404-10.646c44.268-25.56,4.166-96.493-42.021-69.828
		c-22.454,12.963-19.77,46.483-43.198,60.008C377.042,518.29,359.494,493.349,327.83,511.632z"/>
	<path fill="none" d="M429.356,558.088c-22.457,12.963-19.484,46.314-43.198,60.005c-23.711,13.686-44.958-9.114-75.786,8.682
		c-43.621,25.192-4.903,96.909,40.743,70.562c28.806-16.626,22.472-44.701,46.863-58.776c24.388-14.084,44.532,6.022,73.401-10.654
		C515.646,602.352,475.545,531.409,429.356,558.088z"/>
	<path fill="none" d="M1425.227,429.053c-31.011,0-57.672,11.319-79.956,33.969c-22.275,22.646-33.422,50.032-33.422,82.157
		c0,20.716,5.081,40.027,15.242,57.936c10.162,17.908,23.89,31.735,41.182,41.479c17.287,9.734,36.281,14.613,56.958,14.613
		s39.664-4.879,56.963-14.613c17.287-9.744,31.014-23.571,41.183-41.479c10.155-17.905,15.24-37.215,15.24-57.936
		c0-32.125-11.185-59.512-33.566-82.157C1482.675,440.372,1456.069,429.053,1425.227,429.053z"/>
	<path fill="#41D193" d="M104.23,456.85c0,0,0,39.506,0,177.323c0,137.833,145.176,145.182,145.176,145.182s56.969,0,192.024,0
		c145.182,0,145.182-145.182,145.182-145.182V306.161H254.916C107.911,306.161,104.23,456.85,104.23,456.85z M471.38,627.905
		c-28.869,16.677-49.014-3.43-73.401,10.654c-24.392,14.075-18.058,42.15-46.863,58.776c-45.646,26.348-84.364-45.369-40.743-70.562
		c30.828-17.796,52.075,5.004,75.786-8.682c23.714-13.69,20.741-47.042,43.198-60.005
		C475.545,531.409,515.646,602.352,471.38,627.905z M443.668,444.759c46.187-26.665,86.288,44.269,42.021,69.828
		c-28.875,16.672-49.01-3.435-73.404,10.646c-24.385,14.084-14.013,39.822-43.352,56.767c-33.36,19.253-51.835-3.521-77.418,11.247
		c-25.578,14.766-12.447,40.631-45.753,59.856c-45.484,26.259-84.367-45.384-40.743-70.562c31.292-18.062,49.71,4.999,75.405-9.844
		c25.705-14.834,14.279-41.935,47.406-61.066c31.664-18.283,49.212,6.658,72.64-6.865
		C423.898,491.242,421.214,457.722,443.668,444.759z M296.346,462.521c23.715-13.691,20.742-47.04,43.191-60.005
		c46.193-26.669,86.287,44.266,42.026,69.827c-28.872,16.667-49.017-3.438-73.407,10.645
		c-24.384,14.081-18.052,42.157-46.857,58.783c-45.641,26.355-84.364-45.377-40.736-70.573
		C251.385,453.408,272.632,476.215,296.346,462.521z"/>
	<path d="M979.869,448.536c-29.516-37.038-68.987-55.563-118.416-55.563c-48.009,0-86.326,18.081-114.951,54.248
		c-22.584,28.438-33.871,60.827-33.871,97.168c0,38.622,13.336,73.25,40.005,103.884c26.675,30.636,63.656,45.952,110.953,45.952
		c21.333,0,40.447-3.204,57.343-9.612c16.889-6.4,32.094-15.752,45.606-28.046c13.516-12.288,25.427-28.438,35.741-48.452
		l-31.443-16.326c-11.382,18.714-21.963,32.265-31.755,40.654c-9.779,8.396-21.651,15.134-35.613,20.203
		c-13.961,5.074-28.32,7.609-43.082,7.609c-30.593,0-56.298-10.641-77.107-31.921s-31.57-48.563-32.278-81.841h260.875
		C1011.519,507.348,1000.849,474.698,979.869,448.536z M754.734,514.628c7.645-26.332,18.942-46.081,33.884-59.246
		c20.45-18.08,44.905-27.125,73.369-27.125c17.248,0,33.702,3.602,49.352,10.795c15.65,7.2,28.235,16.682,37.754,28.441
		c9.516,11.768,16.761,27.479,21.743,47.135H754.734z"/>
	<path d="M1162.659,405.218c-12.617,8.163-24.609,20.5-35.973,36.998v-41.868h-38.104v286.505h38.108v-96.905
		c0-49.683,2.306-82.688,6.929-99.015c6.036-21.238,14.828-36.906,26.379-47.003c11.543-10.096,23.538-15.144,35.972-15.144
		c5.327,0,11.902,1.671,19.719,5.003l19.453-31.074c-11.727-6.492-22.743-9.741-33.042-9.741
		C1188.412,392.974,1175.271,397.056,1162.659,405.218z"/>
	<path d="M1425.36,392.974c-44.843,0-81.951,16.063-111.31,48.19c-26.696,29.145-40.042,63.553-40.042,103.227
		c0,40.025,14.107,75.007,42.314,104.938c28.197,29.933,64.547,44.896,109.037,44.896c44.309,0,80.57-14.959,108.777-44.896
		c28.204-29.932,42.311-64.913,42.311-104.938c0-39.848-13.352-74.347-40.042-103.49
		C1507.042,408.951,1470.028,392.974,1425.36,392.974z M1523.376,603.114c-10.169,17.908-23.896,31.735-41.183,41.479
		c-17.299,9.734-36.286,14.613-56.963,14.613s-39.671-4.879-56.958-14.613c-17.292-9.744-31.02-23.571-41.182-41.479
		c-10.161-17.908-15.242-37.22-15.242-57.936c0-32.125,11.146-59.512,33.422-82.157c22.284-22.649,48.945-33.969,79.956-33.969
		c30.843,0,57.448,11.319,79.823,33.969c22.382,22.646,33.566,50.032,33.566,82.157
		C1538.616,565.899,1533.531,585.209,1523.376,603.114z"/>
	<path d="M1798.085,564.93c-9.972-13.164-28.842-26.857-56.611-41.08c-22.787-11.585-37.744-21.684-44.863-30.284
		c-7.118-8.425-10.679-17.288-10.679-26.598c0-10.53,4.317-19.746,12.959-27.649c8.636-7.898,19.01-11.85,31.126-11.85
		c19.048,0,38.553,9.571,58.506,28.703l23.983-24.486c-27.046-25.807-53.921-38.712-80.606-38.712c-22.96,0-41.95,7.2-56.986,21.592
		c-15.041,14.4-22.556,32.481-22.556,54.248c0,16.681,4.721,31.513,14.151,44.505c9.436,12.992,27.236,26.158,53.408,39.501
		c24.389,12.29,40.059,22.476,47.004,30.548c6.941,8.254,10.412,17.644,10.412,28.175c0,12.816-5.258,23.964-15.763,33.439
		c-10.506,9.481-23.237,14.226-38.192,14.226c-21.362,0-41.57-10.623-60.631-31.867l-23.448,26.334
		c9.966,12.642,22.549,22.565,37.766,29.758c15.21,7.197,31.179,10.798,47.906,10.798c25.08,0,45.983-8.163,62.708-24.495
		c16.729-16.325,25.092-36.246,25.092-59.777C1812.771,593.283,1807.876,578.273,1798.085,564.93z"/>
</g>
</svg>