<?xml version="1.0" encoding="utf-8"?>
<!-- Generator: Adobe Illustrator 16.0.0, SVG Export Plug-In . SVG Version: 6.00 Build 0)  -->
<!DOCTYPE svg PUBLIC "-//W3C//DTD SVG 1.1//EN" "http://www.w3.org/Graphics/SVG/1.1/DTD/svg11.dtd">
<svg version="1.1" id="ic_empty_transactions" xmlns="http://www.w3.org/2000/svg" xmlns:xlink="http://www.w3.org/1999/xlink"
	 x="0px" y="0px" width="612px" height="792px" viewBox="0 0 612 792" enable-background="new 0 0 612 792" xml:space="preserve">
<g id="Group_9015">
	<path id="Path_18970" fill="#D6D6D6" d="M306,249.12c-81.396,0-146.88,65.484-146.88,146.88c0,81.396,65.484,146.88,146.88,146.88
		c81.396,0,146.88-65.483,146.88-146.88C452.88,314.604,387.396,249.12,306,249.12z M306,506.16
		c-60.588,0-110.16-49.572-110.16-110.16S245.412,285.84,306,285.84S416.16,335.412,416.16,396S366.588,506.16,306,506.16z"/>
	<g id="Group_9014">
		<g id="Group_9013">
			<path id="Path_18972" fill="#666666" d="M306,279.72c-64.26,0-116.28,52.021-116.28,116.28S241.74,512.28,306,512.28
				S422.28,460.26,422.28,396S370.26,279.72,306,279.72z M306,500.04c-57.528,0-104.04-46.512-104.04-104.04
				c0-57.528,46.512-104.04,104.04-104.04c57.528,0,104.04,46.512,104.04,104.04C410.04,453.528,363.528,500.04,306,500.04z"/>
			<path id="Rectangle_4664" fill="#666666" d="M507.96,432.72h12.24v24.48h-12.24V432.72z"/>
			<path id="Rectangle_4665" fill="#666666" d="M507.96,359.28h12.24v48.96h-12.24V359.28z"/>
			<path id="Rectangle_4666" fill="#666666" d="M91.8,383.76h12.24v48.96H91.8V383.76z"/>
			<path id="Rectangle_4667" fill="#666666" d="M91.8,334.8h12.24v24.48H91.8V334.8z"/>
			<path id="Path_18973" fill="#666666" d="M582.624,524.52H520.2v-42.84h-12.24v55.08h47.736L465.12,643.86L374.544,536.76h41.616
				v-12.24h-27.54c70.992-45.899,91.8-140.147,45.899-211.14c-39.168-60.588-115.668-85.68-182.987-59.976L146.88,129.78
				L29.376,267.48H91.8v42.84h12.24v-55.08H56.304l90.576-107.1l90.576,107.1H195.84v12.24h27.54
				c-70.992,45.9-91.8,140.148-45.9,211.14c39.168,60.588,115.668,85.68,182.988,59.976L465.12,662.22L582.624,524.52z M165.24,396
				c0-77.724,63.036-140.76,140.76-140.76c77.724,0,140.76,63.036,140.76,140.76c0,77.724-63.036,140.76-140.76,140.76
				C228.276,536.76,165.24,473.724,165.24,396z"/>
		</g>
	</g>
</g>
<path id="Rectangle_4668" fill="none" d="M0,90h612v612H0V90z"/>
<path fill="#666666" d="M284.762,343.04c-34.497,0-35.361,35.362-35.361,35.362s0,9.27,0,41.611
	c0,32.344,34.068,34.068,34.068,34.068s13.368,0,45.061,0c34.068,0,34.068-34.068,34.068-34.068V343.04H284.762z M276.7,381.769
	c7.233-4.175,12.22,1.177,17.784-2.037c5.565-3.213,4.867-11.039,10.136-14.082c10.84-6.258,20.248,10.388,9.861,16.386
	c-6.773,3.911-11.501-0.807-17.225,2.498c-5.722,3.305-4.237,9.893-10.996,13.795C275.549,404.514,266.462,387.681,276.7,381.769z
	 M335.558,418.542c-6.774,3.912-11.502-0.805-17.224,2.5c-5.725,3.303-4.238,9.891-10.998,13.794
	c-10.711,6.183-19.797-10.648-9.56-16.56c7.234-4.176,12.22,1.175,17.785-2.037c5.564-3.213,4.866-11.039,10.136-14.081
	C336.535,395.898,345.945,412.545,335.558,418.542z M338.916,391.95c-6.775,3.911-11.501-0.807-17.226,2.498
	c-5.722,3.305-3.288,9.345-10.173,13.321c-7.829,4.519-12.164-0.826-18.167,2.64c-6.002,3.466-2.92,9.534-10.737,14.048
	c-10.673,6.161-19.798-10.65-9.56-16.561c7.343-4.238,11.665,1.174,17.695-2.309c6.031-3.48,3.35-9.841,11.124-14.33
	c7.431-4.291,11.548,1.562,17.046-1.611c5.497-3.175,4.867-11.041,10.137-14.083C339.894,369.307,349.303,385.952,338.916,391.95z"
	/>
</svg>
