<?xml version="1.0" encoding="utf-8"?>
<!-- Generator: Adobe Illustrator 16.0.0, SVG Export Plug-In . SVG Version: 6.00 Build 0)  -->
<!DOCTYPE svg PUBLIC "-//W3C//DTD SVG 1.1//EN" "http://www.w3.org/Graphics/SVG/1.1/DTD/svg11.dtd">
<svg version="1.1" id="ic_empty_Dark_transactions" xmlns="http://www.w3.org/2000/svg" xmlns:xlink="http://www.w3.org/1999/xlink"
	 x="0px" y="0px" width="612px" height="792px" viewBox="0 0 612 792" enable-background="new 0 0 612 792" xml:space="preserve">
<g id="Group_9036">
	<path id="Path_18988" fill="#021f12" d="M306,249.12c-81.396,0-146.88,65.484-146.88,146.88c0,81.396,65.484,146.88,146.88,146.88
		c81.396,0,146.88-65.483,146.88-146.88C452.88,314.604,387.396,249.12,306,249.12z M306,506.16
		c-60.588,0-110.16-49.572-110.16-110.16S245.412,285.84,306,285.84S416.16,335.412,416.16,396S366.588,506.16,306,506.16z"/>
	<g id="Group_9035">
		<g id="Group_9034">
			<path id="Path_18990" fill="#A09EA5" d="M306,279.72c-64.26,0-116.28,52.021-116.28,116.28S241.74,512.28,306,512.28
				S422.28,460.26,422.28,396S370.26,279.72,306,279.72z M306,500.04c-57.528,0-104.04-46.512-104.04-104.04
				c0-57.528,46.512-104.04,104.04-104.04c57.528,0,104.04,46.512,104.04,104.04C410.04,453.528,363.528,500.04,306,500.04z"/>
			<path id="Rectangle_4693" fill="#A09EA5" d="M507.96,432.72h12.24v24.48h-12.24V432.72z"/>
			<path id="Rectangle_4694" fill="#A09EA5" d="M507.96,359.28h12.24v48.96h-12.24V359.28z"/>
			<path id="Rectangle_4695" fill="#A09EA5" d="M91.8,383.76h12.24v48.96H91.8V383.76z"/>
			<path id="Rectangle_4696" fill="#A09EA5" d="M91.8,334.8h12.24v24.48H91.8V334.8z"/>
			<path id="Path_18991" fill="#A09EA5" d="M582.624,524.52H520.2v-42.84h-12.24v55.08h47.736L465.12,643.86L374.544,536.76h41.616
				v-12.24h-27.54c70.992-45.899,91.8-140.147,45.899-211.14c-39.168-60.588-115.668-85.68-182.987-59.976L146.88,129.78
				L29.376,267.48H91.8v42.84h12.24v-55.08H56.304l90.576-107.1l90.576,107.1H195.84v12.24h27.54
				c-70.992,45.9-91.8,140.148-45.9,211.14c39.168,60.588,115.668,85.68,182.988,59.976L465.12,662.22L582.624,524.52z M165.24,396
				c0-77.724,63.036-140.76,140.76-140.76c77.724,0,140.76,63.036,140.76,140.76c0,77.724-63.036,140.76-140.76,140.76
				C228.276,536.76,165.24,473.724,165.24,396z"/>
		</g>
	</g>
</g>
<path id="Rectangle_4697" fill="none" d="M0,90h612v612H0V90z"/>
<path fill="#A09EA5" d="M278.009,335.91c-40.592,0-41.608,41.609-41.608,41.609s0,10.908,0,48.964
	c0,38.059,40.087,40.088,40.087,40.088s15.73,0,53.021,0c40.089,0,40.089-40.088,40.089-40.088V335.91H278.009z M268.523,381.48
	c8.511-4.913,14.378,1.385,20.926-2.396c6.548-3.781,5.727-12.989,11.926-16.569c12.755-7.364,23.826,12.223,11.604,19.281
	c-7.972,4.602-13.534-0.949-20.269,2.939c-6.733,3.889-4.985,11.641-12.939,16.231C267.169,408.244,256.477,388.438,268.523,381.48z
	 M337.78,424.752c-7.972,4.604-13.534-0.947-20.269,2.941c-6.734,3.887-4.985,11.639-12.939,16.229
	c-12.604,7.275-23.295-12.527-11.25-19.482c8.512-4.914,14.379,1.381,20.926-2.398c6.549-3.779,5.728-12.988,11.928-16.568
	C338.93,398.105,350.004,417.695,337.78,424.752z M341.731,393.461c-7.974,4.604-13.533-0.948-20.269,2.939
	c-6.733,3.889-3.869,10.996-11.971,15.676c-9.212,5.316-14.313-0.973-21.377,3.105c-7.063,4.076-3.437,11.219-12.634,16.527
	c-12.559,7.25-23.296-12.531-11.25-19.484c8.64-4.986,13.726,1.381,20.822-2.717c7.097-4.098,3.942-11.58,13.089-16.862
	c8.744-5.049,13.589,1.839,20.058-1.896c6.47-3.735,5.728-12.991,11.929-16.57C342.881,366.817,353.955,386.404,341.731,393.461z"/>
</svg>
