<?xml version="1.0" encoding="utf-8"?>
<!-- Generator: Adobe Illustrator 23.0.0, SVG Export Plug-In . SVG Version: 6.00 Build 0)  -->
<svg version="1.1" id="ic_empty_dark_multisend" xmlns="http://www.w3.org/2000/svg" xmlns:xlink="http://www.w3.org/1999/xlink"
	 x="0px" y="0px" viewBox="0 0 100 100" style="enable-background:new 0 0 100 100;" xml:space="preserve">
<style type="text/css">
	.st0{fill:#021f12;}
	.st1{fill:#A09EA5;}
	.st2{fill:none;}
	.st3{fill:#A09EA4;}
</style>
<g>
	<rect x="29.244" y="19.379" fill="none" width="14.826" height="6.917"/>
	<path fill="none" d="M45.058,17.403h3.954v-3.952c0-2.174-1.779-3.953-3.954-3.953s-3.954,1.779-3.954,3.953
		S42.884,17.403,45.058,17.403z"/>
	<path fill="none" d="M58.896,13.451c0-2.174-1.779-3.953-3.954-3.953s-3.954,1.779-3.954,3.953v3.952h3.954
		C57.116,17.403,58.896,15.625,58.896,13.451z"/>
	<rect x="55.93" y="19.379" fill="none" width="14.826" height="6.917"/>
	<path fill="none" d="M47.284,39.774c0.937-0.541,0.731-1.453,1.524-1.911c0.793-0.458,1.448,0.196,2.387-0.346
		c1.439-0.831,0.135-3.137-1.367-2.27c-0.73,0.421-0.634,1.506-1.405,1.951c-0.771,0.445-1.462-0.296-2.464,0.282
		C44.54,38.299,45.799,40.631,47.284,39.774z"/>
	<path fill="none" d="M52.749,40.305c-0.73,0.421-0.634,1.506-1.405,1.951c-0.771,0.445-1.462-0.296-2.465,0.282
		c-1.418,0.819-0.159,3.151,1.325,2.294c0.937-0.541,0.731-1.454,1.524-1.911c0.793-0.458,1.448,0.196,2.387-0.346
		C55.555,41.744,54.251,39.438,52.749,40.305z"/>
	<path fill="none" d="M46.778,43.395c1.083-0.625,0.656-1.466,1.488-1.946s1.433,0.26,2.518-0.366
		c0.954-0.551,0.617-1.388,1.41-1.846c0.793-0.458,1.448,0.196,2.387-0.346c1.439-0.831,0.136-3.137-1.367-2.27
		c-0.73,0.421-0.643,1.511-1.405,1.951c-0.762,0.44-1.333-0.371-2.362,0.223c-1.077,0.622-0.706,1.503-1.542,1.986
		s-1.435-0.267-2.453,0.32C44.035,41.919,45.299,44.248,46.778,43.395z"/>
	<polygon fill="#021f12" points="46.046,19.379 46.046,26.296 53.954,26.296 53.954,19.379 50.988,19.379 	"/>
	<path fill="#021f12" d="M15.407,74.714h3.954v-7.905h-3.954V74.714z M17.384,71.75c0.546,0,0.988,0.442,0.988,0.988
		c0,0.546-0.442,0.988-0.988,0.988s-0.988-0.442-0.988-0.988C16.396,72.192,16.838,71.75,17.384,71.75z"/>
	<path fill="#021f12" d="M80.64,74.714h3.954v-7.905H80.64V74.714z M82.616,71.75c0.546,0,0.988,0.442,0.988,0.988
		c0,0.546-0.442,0.988-0.988,0.988s-0.988-0.442-0.988-0.988C81.628,72.192,82.07,71.75,82.616,71.75z"/>
	<path fill="#021f12" d="M48.023,74.714h3.953v-7.905h-3.953V74.714z M50,71.75c0.546,0,0.988,0.442,0.988,0.988
		c0,0.546-0.442,0.988-0.988,0.988s-0.988-0.442-0.988-0.988C49.012,72.192,49.454,71.75,50,71.75z"/>
	<rect x="66.802" y="40.13" fill="#A09EA5" width="1.977" height="3.952"/>
	<circle fill="#A09EA5" cx="50" cy="72.738" r="0.988"/>
	<circle fill="#A09EA5" cx="82.616" cy="72.738" r="0.988"/>
	<rect x="32.209" y="57.916" fill="#A09EA5" width="3.953" height="1.977"/>
	<path fill="#A09EA5" d="M16.396,64.833H13.43v2.964H7.5v3.953h1.977v-1.976h3.954v6.917h7.907v-6.917h3.953v20.75H9.477V75.702H7.5
		V92.5h19.768V67.797h-5.93v-2.964h-2.965v-4.94h9.884v-1.977h-11.86V64.833z M19.36,74.714h-3.954v-7.905h3.954V74.714z"/>
	<circle fill="#A09EA5" cx="17.384" cy="72.738" r="0.988"/>
	<path fill="#A09EA5" d="M86.57,67.797v-2.964h-2.965v-6.917H50.988v-4.94h17.791v-4.94h-1.977v2.964H33.198V28.272h33.604v7.905
		h1.977v-7.905h3.953v-10.87H59.39c2.174-2.47,1.977-6.225-0.494-8.399c-2.471-2.174-6.227-1.976-8.401,0.494
		C50.296,9.696,50.099,9.992,50,10.19c-1.779-2.767-5.436-3.458-8.204-1.68c-2.767,1.779-3.459,5.435-1.68,8.202
		c0.198,0.296,0.396,0.494,0.593,0.691H27.268v10.87h3.954v24.703h17.791v4.94h-8.896v1.977h8.896v4.94h-2.965v2.964h-5.93v15.81
		h1.977V69.773h3.953v6.917h7.907v-6.917h3.953v20.75H42.093v-2.964h-1.977V92.5h19.768V67.797h-5.93v-2.964h-2.965v-4.94h30.64
		v4.94h-2.965v2.964h-5.931v11.857h1.977v-9.881h3.954v6.917h7.907v-6.917h3.954v20.75H74.709v-6.917h-1.977V92.5H92.5V67.797H86.57
		z M53.954,26.296h-7.907v-6.917h4.942h2.965V26.296z M70.756,19.379v6.917H55.93v-6.917H70.756z M50.988,13.451
		c0-2.174,1.779-3.953,3.954-3.953s3.954,1.779,3.954,3.953s-1.779,3.952-3.954,3.952h-3.954V13.451z M45.058,9.498
		c2.174,0,3.954,1.779,3.954,3.953v3.952h-3.954c-2.174,0-3.954-1.778-3.954-3.952S42.884,9.498,45.058,9.498z M29.244,26.296
		v-6.917H44.07v6.917H29.244z M51.977,74.714h-3.953v-7.905h3.953V74.714z M84.593,74.714H80.64v-7.905h3.954V74.714z"/>
	<path fill="#A09EA5" d="M42.175,37.014c0,0,0,1.284,0,5.765c0,4.481,4.722,4.72,4.722,4.72s1.853,0,6.245,0
		c4.722,0,4.722-4.72,4.722-4.72V32.114H47.076C42.295,32.114,42.175,37.014,42.175,37.014z M54.116,42.575
		c-0.939,0.542-1.594-0.112-2.387,0.346c-0.793,0.458-0.587,1.371-1.524,1.911c-1.484,0.856-2.744-1.475-1.325-2.294
		c1.002-0.578,1.694,0.163,2.465-0.282c0.771-0.445,0.674-1.529,1.405-1.951C54.251,39.438,55.555,41.744,54.116,42.575z
		 M45.959,37.48c1.002-0.579,1.693,0.163,2.464-0.282c0.771-0.445,0.674-1.529,1.405-1.951c1.502-0.867,2.806,1.439,1.367,2.27
		c-0.939,0.542-1.594-0.111-2.387,0.346c-0.793,0.458-0.587,1.371-1.524,1.911C45.799,40.631,44.54,38.299,45.959,37.48z
		 M45.453,41.1c1.018-0.587,1.617,0.163,2.453-0.32s0.464-1.364,1.542-1.986c1.03-0.594,1.601,0.217,2.362-0.223
		c0.762-0.439,0.675-1.529,1.405-1.951c1.502-0.867,2.806,1.439,1.367,2.27c-0.939,0.542-1.594-0.111-2.387,0.346
		c-0.793,0.458-0.456,1.295-1.41,1.846c-1.085,0.626-1.686-0.114-2.518,0.366s-0.405,1.321-1.488,1.946
		C45.299,44.248,44.035,41.919,45.453,41.1z"/>
</g>
</svg>
