<?xml version="1.0" encoding="utf-8"?>
<!-- Generator: Adobe Illustrator 16.0.0, SVG Export Plug-In . SVG Version: 6.00 Build 0)  -->
<!DOCTYPE svg PUBLIC "-//W3C//DTD SVG 1.1//EN" "http://www.w3.org/Graphics/SVG/1.1/DTD/svg11.dtd">
<svg version="1.1" id="ic_empty_multisend" xmlns="http://www.w3.org/2000/svg" xmlns:xlink="http://www.w3.org/1999/xlink" x="0px"
	 y="0px" width="612px" height="792px" viewBox="0 0 612 792" enable-background="new 0 0 612 792" xml:space="preserve">
<g id="Group_9031">
	<g id="Group_9029">
		<path id="Rectangle_4683" fill="#D6D6D6" d="M275.4,200.16h61.2v55.08h-61.2V200.16z"/>
		<g id="Group_9028">
			<path id="Rectangle_4684" fill="#D6D6D6" d="M85.68,493.92h36.72v61.2H85.68V493.92z"/>
			<path id="Rectangle_4685" fill="#D6D6D6" d="M489.6,493.92h36.721v61.2H489.6V493.92z"/>
			<path id="Rectangle_4686" fill="#D6D6D6" d="M287.64,493.92h36.72v61.2h-36.72V493.92z"/>
		</g>
	</g>
	<g id="Group_9030">
		<path id="Rectangle_4688" fill="#666666" d="M410.04,334.8h12.24v24.48h-12.24V334.8z"/>
		<circle id="Ellipse_626" fill="#666666" cx="306" cy="536.76" r="6.12"/>
		<circle id="Ellipse_627" fill="#666666" cx="507.96" cy="536.76" r="6.12"/>
		<path id="Rectangle_4689" fill="#666666" d="M195.84,444.96h24.48v12.24h-24.48V444.96z"/>
		<path id="Path_18986" fill="#666666" d="M97.92,487.8H79.56v18.36H42.84v24.479h12.24V518.4h24.48v42.84h48.96V518.4H153v128.52
			H55.08v-91.8H42.84v104.04h122.4v-153h-36.72V487.8h-18.36v-30.6h61.2v-12.24H97.92V487.8z M116.28,500.04V549H91.8v-48.96H116.28
			z"/>
		<circle id="Ellipse_628" fill="#666666" cx="104.04" cy="536.76" r="6.12"/>
		<path id="Path_18987" fill="#666666" d="M532.44,506.16V487.8h-18.36v-42.84H312.12v-30.6h110.16V383.76h-12.24v18.36H201.96
			V261.36h208.08v48.96h12.24v-48.96h24.479v-67.32h-82.62c13.464-15.3,12.24-38.556-3.06-52.02s-38.556-12.24-52.021,3.06
			c-1.224,1.224-2.447,3.06-3.06,4.284c-11.016-17.136-33.66-21.42-50.796-10.404c-17.136,11.016-21.42,33.66-10.404,50.796
			c1.224,1.836,2.448,3.06,3.672,4.284H165.24v67.32h24.48v153h110.16v30.6H244.8v12.24h55.08v30.6h-18.36v18.36H244.8v97.92h12.24
			V518.4h24.48v42.84h48.96V518.4h24.479v128.52h-97.92v-18.36H244.8v30.601h122.4v-153h-36.72V487.8h-18.36v-30.6h189.72v30.6
			H483.48v18.36H446.76V579.6H459V518.4h24.48v42.84h48.96V518.4h24.479v128.52H459v-42.84h-12.24v55.08h122.4v-153H532.44z
			 M434.52,206.28v42.84h-91.8v-42.84H434.52z M312.12,169.56c0-13.464,11.016-24.48,24.479-24.48
			c13.465,0,24.48,11.016,24.48,24.48s-11.016,24.48-24.48,24.48H312.12V169.56z M312.12,206.28h18.36v42.84h-48.96v-42.84H312.12z
			 M275.4,145.08c13.464,0,24.48,11.016,24.48,24.48v24.48H275.4c-13.464,0-24.48-11.016-24.48-24.48S261.936,145.08,275.4,145.08z
			 M177.48,249.12v-42.84h91.8v42.84H177.48z M318.24,500.04V549h-24.48v-48.96H318.24z M520.2,549h-24.48v-48.96h24.48V549z"/>
	</g>
</g>
<path id="Rectangle_4690" fill="none" d="M0,90h612v612H0V90z"/>
<path fill="#666666" d="M286.244,281.154c-32.089,0-32.893,32.893-32.893,32.893s0,8.624,0,38.708
	c0,30.087,31.69,31.691,31.69,31.691s12.435,0,41.916,0c31.691,0,31.691-31.691,31.691-31.691v-71.601H286.244z M278.745,317.179
	c6.728-3.884,11.366,1.095,16.542-1.894c5.177-2.989,4.527-10.268,9.428-13.099c10.083-5.821,18.835,9.663,9.173,15.243
	c-6.301,3.638-10.699-0.75-16.023,2.323c-5.323,3.074-3.941,9.203-10.229,12.831C277.675,338.336,269.222,322.679,278.745,317.179z
	 M333.495,351.387c-6.302,3.639-10.699-0.749-16.022,2.325c-5.324,3.073-3.941,9.201-10.229,12.829
	c-9.964,5.751-18.416-9.903-8.894-15.401c6.729-3.885,11.367,1.091,16.543-1.896c5.176-2.988,4.527-10.268,9.429-13.098
	C334.403,330.322,343.158,345.808,333.495,351.387z M336.618,326.65c-6.303,3.639-10.698-0.75-16.022,2.324
	c-5.323,3.074-3.059,8.693-9.463,12.393c-7.283,4.203-11.315-0.769-16.9,2.455c-5.583,3.223-2.717,8.869-9.987,13.065
	c-9.928,5.731-18.416-9.906-8.894-15.403c6.831-3.942,10.851,1.091,16.46-2.148c5.61-3.239,3.117-9.154,10.348-13.33
	c6.912-3.991,10.742,1.454,15.855-1.499c5.115-2.953,4.528-10.27,9.431-13.099C337.527,305.587,346.281,321.071,336.618,326.65z"/>
</svg>
